<svg width="787" height="375" viewBox="0 0 787 375" fill="none" xmlns="http://www.w3.org/2000/svg">
<mask id="path-1-outside-1_1_710" maskUnits="userSpaceOnUse" x="157.206" y="88.1017" width="436.097" height="159.793" fill="black">
<rect fill="white" x="157.206" y="88.1017" width="436.097" height="159.793"/>
<path d="M254.054 212.671C252.248 215.432 249.937 217.916 247.121 220.124C244.306 222.332 241.246 224.237 237.94 225.839C234.635 227.442 231.215 228.728 227.68 229.699C224.148 230.713 220.761 231.384 217.518 231.714C211.248 232.351 205.376 231.811 199.903 230.096C194.429 228.38 189.594 225.748 185.398 222.199C181.241 218.603 177.845 214.23 175.209 209.081C172.573 203.932 170.982 198.262 170.435 192.071C170.019 187.352 170.152 182.687 170.836 178.074C171.515 173.419 172.674 168.999 174.311 164.814C175.988 160.581 178.128 156.651 180.731 153.023C183.33 149.352 186.36 146.117 189.821 143.32C193.283 140.522 197.138 138.23 201.386 136.444C205.635 134.659 210.246 133.514 215.218 133.009C217.078 132.82 219.074 132.704 221.208 132.662C223.338 132.577 225.458 132.624 227.568 132.803C229.718 132.934 231.816 133.223 233.862 133.67C235.908 134.118 237.795 134.734 239.522 135.52L239.896 160.511C237.394 159.848 234.833 159.497 232.212 159.457C229.63 159.37 227.107 159.452 224.642 159.702C221.183 160.053 217.988 160.924 215.057 162.313C212.165 163.656 209.683 165.436 207.61 167.656C205.58 169.872 204.043 172.474 202.998 175.463C201.953 178.452 201.59 181.744 201.907 185.337C202.105 187.588 202.601 189.744 203.394 191.804C204.182 193.82 205.255 195.59 206.611 197.112C208.006 198.586 209.656 199.729 211.56 200.541C213.507 201.347 215.691 201.628 218.113 201.382C219.756 201.215 221.423 200.827 223.114 200.219C224.849 199.606 226.297 198.716 227.46 197.55L227.272 192.458L211.683 193.779L210.741 174.218C217.165 173.347 223.592 172.52 230.023 171.736C236.451 170.908 242.918 170.033 249.424 169.11L254.054 212.671ZM330.707 155.089C331.005 158.466 330.974 161.57 330.613 164.403C330.291 167.187 329.605 169.79 328.554 172.212C327.502 174.634 326.068 176.92 324.251 179.071C322.434 181.221 320.198 183.326 317.545 185.387L335.412 211.353L306.729 220.032L294.299 193.382L286.28 194.459L287.497 221.593L259.607 224.425C258.952 214.532 258.279 204.685 257.589 194.883C256.941 185.077 256.311 175.225 255.699 165.328C255.346 160.34 254.997 155.396 254.652 150.495C254.307 145.594 254.044 140.641 253.864 135.636C256.791 134.203 259.693 132.969 262.568 131.934C265.443 130.9 268.334 130.038 271.24 129.35C274.185 128.614 277.165 128.028 280.181 127.59C283.235 127.105 286.363 126.7 289.562 126.375C294.492 125.875 299.309 126.084 304.015 127.004C308.76 127.876 313.026 129.496 316.812 131.864C320.598 134.231 323.73 137.342 326.208 141.196C328.73 145.046 330.229 149.677 330.707 155.089ZM301.833 160.118C301.673 158.3 301.266 156.659 300.614 155.197C300.004 153.73 299.155 152.506 298.064 151.524C297.014 150.495 295.727 149.752 294.203 149.296C292.719 148.791 291.004 148.638 289.058 148.835C288.193 148.923 287.356 149.074 286.546 149.287C285.732 149.457 284.945 149.69 284.186 149.985L285.281 174.248L286.837 174.09C288.697 173.901 290.557 173.472 292.417 172.803C294.321 172.129 295.985 171.217 297.411 170.068C298.88 168.914 300.021 167.51 300.835 165.854C301.691 164.195 302.024 162.283 301.833 160.118ZM393.928 117.348C394.028 121.444 394.146 125.495 394.281 129.5C394.417 133.505 394.491 137.559 394.504 141.664L367.13 145.886L367.204 154.134L386.532 152.171L386.882 172.448L367.482 175.073L367.67 184.62L383.755 182.987L395.17 181.827C395.331 186.616 395.468 191.385 395.582 196.135C395.736 200.837 395.913 205.558 396.113 210.299L340.319 217.276L334.128 123.422L393.928 117.348ZM485.759 196.87L453.956 204.294L448.769 190.012L433.981 191.514L432.033 206.52L398.669 206.633L416.847 117.51L452.748 112.03L485.759 196.87ZM444.68 170.378L437.755 148.279L434.951 171.366L444.68 170.378ZM540.319 103.267L542.101 130.867L522.842 133.61L523.347 195.674L496.103 199.882L490.798 138.306L471.562 141.308L469.634 110.577L540.319 103.267ZM575.347 96.0401L576.059 164.897L552.061 167.335L543.566 99.2679L575.347 96.0401ZM578.862 184.794C579.03 186.699 578.819 188.511 578.229 190.231C577.64 191.951 576.771 193.48 575.624 194.82C574.524 196.198 573.183 197.317 571.601 198.177C570.023 199.08 568.305 199.626 566.445 199.814C564.543 200.008 562.737 199.82 561.029 199.251C559.325 198.725 557.791 197.898 556.426 196.77C555.108 195.68 554.009 194.35 553.129 192.78C552.292 191.205 551.789 189.465 551.621 187.56C551.457 185.699 551.646 183.888 552.189 182.13C552.775 180.367 553.62 178.818 554.723 177.482C555.866 176.099 557.227 174.957 558.805 174.054C560.383 173.151 562.124 172.603 564.026 172.41C565.886 172.221 567.669 172.411 569.377 172.98C571.085 173.549 572.6 174.4 573.922 175.533C575.283 176.617 576.405 177.967 577.289 179.581C578.173 181.194 578.698 182.932 578.862 184.794Z"/>
</mask>
<path d="M254.054 212.671C252.248 215.432 249.937 217.916 247.121 220.124C244.306 222.332 241.246 224.237 237.94 225.839C234.635 227.442 231.215 228.728 227.68 229.699C224.148 230.713 220.761 231.384 217.518 231.714C211.248 232.351 205.376 231.811 199.903 230.096C194.429 228.38 189.594 225.748 185.398 222.199C181.241 218.603 177.845 214.23 175.209 209.081C172.573 203.932 170.982 198.262 170.435 192.071C170.019 187.352 170.152 182.687 170.836 178.074C171.515 173.419 172.674 168.999 174.311 164.814C175.988 160.581 178.128 156.651 180.731 153.023C183.33 149.352 186.36 146.117 189.821 143.32C193.283 140.522 197.138 138.23 201.386 136.444C205.635 134.659 210.246 133.514 215.218 133.009C217.078 132.82 219.074 132.704 221.208 132.662C223.338 132.577 225.458 132.624 227.568 132.803C229.718 132.934 231.816 133.223 233.862 133.67C235.908 134.118 237.795 134.734 239.522 135.52L239.896 160.511C237.394 159.848 234.833 159.497 232.212 159.457C229.63 159.37 227.107 159.452 224.642 159.702C221.183 160.053 217.988 160.924 215.057 162.313C212.165 163.656 209.683 165.436 207.61 167.656C205.58 169.872 204.043 172.474 202.998 175.463C201.953 178.452 201.59 181.744 201.907 185.337C202.105 187.588 202.601 189.744 203.394 191.804C204.182 193.82 205.255 195.59 206.611 197.112C208.006 198.586 209.656 199.729 211.56 200.541C213.507 201.347 215.691 201.628 218.113 201.382C219.756 201.215 221.423 200.827 223.114 200.219C224.849 199.606 226.297 198.716 227.46 197.55L227.272 192.458L211.683 193.779L210.741 174.218C217.165 173.347 223.592 172.52 230.023 171.736C236.451 170.908 242.918 170.033 249.424 169.11L254.054 212.671ZM330.707 155.089C331.005 158.466 330.974 161.57 330.613 164.403C330.291 167.187 329.605 169.79 328.554 172.212C327.502 174.634 326.068 176.92 324.251 179.071C322.434 181.221 320.198 183.326 317.545 185.387L335.412 211.353L306.729 220.032L294.299 193.382L286.28 194.459L287.497 221.593L259.607 224.425C258.952 214.532 258.279 204.685 257.589 194.883C256.941 185.077 256.311 175.225 255.699 165.328C255.346 160.34 254.997 155.396 254.652 150.495C254.307 145.594 254.044 140.641 253.864 135.636C256.791 134.203 259.693 132.969 262.568 131.934C265.443 130.9 268.334 130.038 271.24 129.35C274.185 128.614 277.165 128.028 280.181 127.59C283.235 127.105 286.363 126.7 289.562 126.375C294.492 125.875 299.309 126.084 304.015 127.004C308.76 127.876 313.026 129.496 316.812 131.864C320.598 134.231 323.73 137.342 326.208 141.196C328.73 145.046 330.229 149.677 330.707 155.089ZM301.833 160.118C301.673 158.3 301.266 156.659 300.614 155.197C300.004 153.73 299.155 152.506 298.064 151.524C297.014 150.495 295.727 149.752 294.203 149.296C292.719 148.791 291.004 148.638 289.058 148.835C288.193 148.923 287.356 149.074 286.546 149.287C285.732 149.457 284.945 149.69 284.186 149.985L285.281 174.248L286.837 174.09C288.697 173.901 290.557 173.472 292.417 172.803C294.321 172.129 295.985 171.217 297.411 170.068C298.88 168.914 300.021 167.51 300.835 165.854C301.691 164.195 302.024 162.283 301.833 160.118ZM393.928 117.348C394.028 121.444 394.146 125.495 394.281 129.5C394.417 133.505 394.491 137.559 394.504 141.664L367.13 145.886L367.204 154.134L386.532 152.171L386.882 172.448L367.482 175.073L367.67 184.62L383.755 182.987L395.17 181.827C395.331 186.616 395.468 191.385 395.582 196.135C395.736 200.837 395.913 205.558 396.113 210.299L340.319 217.276L334.128 123.422L393.928 117.348ZM485.759 196.87L453.956 204.294L448.769 190.012L433.981 191.514L432.033 206.52L398.669 206.633L416.847 117.51L452.748 112.03L485.759 196.87ZM444.68 170.378L437.755 148.279L434.951 171.366L444.68 170.378ZM540.319 103.267L542.101 130.867L522.842 133.61L523.347 195.674L496.103 199.882L490.798 138.306L471.562 141.308L469.634 110.577L540.319 103.267ZM575.347 96.0401L576.059 164.897L552.061 167.335L543.566 99.2679L575.347 96.0401ZM578.862 184.794C579.03 186.699 578.819 188.511 578.229 190.231C577.64 191.951 576.771 193.48 575.624 194.82C574.524 196.198 573.183 197.317 571.601 198.177C570.023 199.08 568.305 199.626 566.445 199.814C564.543 200.008 562.737 199.82 561.029 199.251C559.325 198.725 557.791 197.898 556.426 196.77C555.108 195.68 554.009 194.35 553.129 192.78C552.292 191.205 551.789 189.465 551.621 187.56C551.457 185.699 551.646 183.888 552.189 182.13C552.775 180.367 553.62 178.818 554.723 177.482C555.866 176.099 557.227 174.957 558.805 174.054C560.383 173.151 562.124 172.603 564.026 172.41C565.886 172.221 567.669 172.411 569.377 172.98C571.085 173.549 572.6 174.4 573.922 175.533C575.283 176.617 576.405 177.967 577.289 179.581C578.173 181.194 578.698 182.932 578.862 184.794Z" fill="url(#paint0_linear_1_710)"/>
<path d="M254.054 212.671L259.808 216.412L261.177 214.32L260.914 211.85L254.054 212.671ZM237.94 225.839L235.002 219.621L237.94 225.839ZM227.68 229.699L225.938 223.03L225.899 223.041L225.86 223.052L227.68 229.699ZM185.398 222.199L180.851 227.46L180.88 227.484L180.909 227.509L185.398 222.199ZM175.209 209.081L169.063 212.302L175.209 209.081ZM170.836 178.074L177.659 179.004L177.661 178.997L177.662 178.989L170.836 178.074ZM174.311 164.814L167.904 162.333L167.899 162.347L167.893 162.361L174.311 164.814ZM180.731 153.023L186.314 157.013L186.327 156.995L186.34 156.977L180.731 153.023ZM221.208 132.662L221.254 139.577L221.325 139.575L221.395 139.573L221.208 132.662ZM227.568 132.803L226.899 139.694L226.98 139.701L227.061 139.706L227.568 132.803ZM239.522 135.52L246.42 135.327L246.355 130.997L242.44 129.216L239.522 135.52ZM239.896 160.511L238.052 167.199L246.932 169.553L246.794 160.318L239.896 160.511ZM232.212 159.457L231.89 166.369L231.954 166.371L232.019 166.372L232.212 159.457ZM215.057 162.313L217.888 168.583L217.914 168.571L217.94 168.558L215.057 162.313ZM207.61 167.656L202.602 162.965L202.579 162.99L202.556 163.014L207.61 167.656ZM203.394 191.804L196.953 194.365L196.96 194.383L196.967 194.4L203.394 191.804ZM206.611 197.112L201.439 201.755L201.507 201.832L201.577 201.906L206.611 197.112ZM211.56 200.541L208.792 206.911L208.823 206.924L208.854 206.937L211.56 200.541ZM223.114 200.219L220.896 193.7L220.877 193.706L220.858 193.713L223.114 200.219ZM227.46 197.55L232.309 202.406L234.466 200.241L234.354 197.205L227.46 197.55ZM227.272 192.458L234.166 192.113L233.902 184.963L226.779 185.567L227.272 192.458ZM211.683 193.779L204.792 194.202L205.132 201.268L212.175 200.671L211.683 193.779ZM210.741 174.218L209.904 167.365L203.542 168.227L203.85 174.641L210.741 174.218ZM230.023 171.736L230.769 178.601L230.792 178.598L230.815 178.595L230.023 171.736ZM249.424 169.11L256.284 168.289L255.538 161.271L248.544 162.263L249.424 169.11ZM248.301 208.93C246.949 210.996 245.177 212.923 242.914 214.698L251.328 225.55C254.696 222.909 257.547 219.867 259.808 216.412L248.301 208.93ZM242.914 214.698C240.504 216.588 237.87 218.23 235.002 219.621L240.879 232.058C244.621 230.244 248.108 228.075 251.328 225.55L242.914 214.698ZM235.002 219.621C232.082 221.037 229.062 222.173 225.938 223.03L229.422 236.368C233.368 235.284 237.189 233.847 240.879 232.058L235.002 219.621ZM225.86 223.052C222.677 223.966 219.697 224.55 216.911 224.833L218.125 238.594C221.825 238.219 225.619 237.46 229.5 236.346L225.86 223.052ZM216.911 224.833C211.48 225.385 206.549 224.906 202.038 223.492L197.767 236.699C204.204 238.716 211.017 239.316 218.125 238.594L216.911 224.833ZM202.038 223.492C197.391 222.036 193.363 219.83 189.886 216.889L180.909 227.509C185.824 231.666 191.466 234.724 197.767 236.699L202.038 223.492ZM189.944 216.939C186.479 213.941 183.613 210.272 181.355 205.861L169.063 212.302C172.076 218.188 176.003 223.264 180.851 227.46L189.944 216.939ZM181.355 205.861C179.148 201.549 177.781 196.745 177.307 191.373L163.563 192.769C164.182 199.78 165.998 206.315 169.063 212.302L181.355 205.861ZM177.307 191.373C176.938 187.186 177.057 183.067 177.659 179.004L164.012 177.145C163.247 182.307 163.1 187.519 163.563 192.769L177.307 191.373ZM177.662 178.989C178.268 174.834 179.296 170.931 180.73 167.266L167.893 162.361C166.052 167.066 164.763 172.004 164.01 177.16L177.662 178.989ZM180.719 167.294C182.188 163.585 184.054 160.163 186.314 157.013L175.148 149.033C172.203 153.138 169.788 157.577 167.904 162.333L180.719 167.294ZM186.34 156.977C188.569 153.828 191.156 151.069 194.109 148.681L185.533 137.958C181.564 141.166 178.091 144.875 175.122 149.069L186.34 156.977ZM194.109 148.681C197.037 146.314 200.319 144.357 203.983 142.817L198.789 130.072C193.956 132.103 189.528 134.729 185.533 137.958L194.109 148.681ZM203.983 142.817C207.543 141.322 211.476 140.331 215.826 139.889L214.611 126.128C209.015 126.696 203.727 127.996 198.789 130.072L203.983 142.817ZM215.826 139.889C217.474 139.722 219.282 139.616 221.254 139.577L221.162 125.748C218.867 125.793 216.681 125.918 214.611 126.128L215.826 139.889ZM221.395 139.573C223.241 139.499 225.075 139.539 226.899 139.694L228.238 125.911C225.842 125.708 223.436 125.655 221.022 125.752L221.395 139.573ZM227.061 139.706C228.867 139.816 230.615 140.058 232.309 140.428L235.415 126.912C233.016 126.388 230.568 126.051 228.076 125.899L227.061 139.706ZM232.309 140.428C233.932 140.783 235.356 141.256 236.605 141.824L242.44 129.216C240.234 128.212 237.884 127.452 235.415 126.912L232.309 140.428ZM232.624 135.713L232.998 160.705L246.794 160.318L246.42 135.327L232.624 135.713ZM241.74 153.824C238.695 153.017 235.579 152.59 232.405 152.542L232.019 166.372C234.087 166.404 236.094 166.68 238.052 167.199L241.74 153.824ZM232.533 152.545C229.655 152.448 226.822 152.538 224.035 152.821L225.25 166.582C227.392 166.365 229.604 166.292 231.89 166.369L232.533 152.545ZM224.035 152.821C219.848 153.246 215.876 154.313 212.173 156.068L217.94 168.558C220.1 167.534 222.518 166.86 225.25 166.582L224.035 152.821ZM212.225 156.044C208.558 157.746 205.324 160.049 202.602 162.965L212.618 172.347C214.041 170.824 215.772 169.565 217.888 168.583L212.225 156.044ZM202.556 163.014C199.847 165.972 197.832 169.414 196.491 173.251L209.506 177.675C210.254 175.534 211.314 173.771 212.664 172.298L202.556 163.014ZM196.491 173.251C195.075 177.302 194.643 181.601 195.035 186.035L208.779 184.639C208.536 181.886 208.832 179.602 209.506 177.675L196.491 173.251ZM195.035 186.035C195.289 188.912 195.926 191.696 196.953 194.365L209.834 189.242C209.276 187.791 208.922 186.264 208.779 184.639L195.035 186.035ZM196.967 194.4C198.032 197.124 199.516 199.597 201.439 201.755L211.783 192.468C210.994 191.583 210.333 190.516 209.821 189.207L196.967 194.4ZM201.577 201.906C203.623 204.068 206.048 205.742 208.792 206.911L214.328 194.17C213.263 193.717 212.389 193.104 211.645 192.318L201.577 201.906ZM208.854 206.937C211.991 208.237 215.337 208.606 218.72 208.263L217.505 194.501C216.045 194.65 215.023 194.458 214.265 194.144L208.854 206.937ZM218.72 208.263C220.97 208.034 223.191 207.509 225.37 206.725L220.858 193.713C219.655 194.146 218.541 194.396 217.505 194.501L218.72 208.263ZM225.333 206.738C227.935 205.818 230.318 204.403 232.309 202.406L222.61 192.694C222.276 193.029 221.762 193.393 220.896 193.7L225.333 206.738ZM234.354 197.205L234.166 192.113L220.378 192.803L220.565 197.894L234.354 197.205ZM226.779 185.567L211.19 186.888L212.175 200.671L227.765 199.349L226.779 185.567ZM218.574 193.357L217.632 173.796L203.85 174.641L204.792 194.202L218.574 193.357ZM211.579 181.071C217.972 180.205 224.369 179.381 230.769 178.601L229.278 164.87C222.816 165.658 216.358 166.49 209.904 167.365L211.579 181.071ZM230.815 178.595C237.272 177.764 243.768 176.885 250.304 175.958L248.544 162.263C242.067 163.181 235.629 164.053 229.232 164.876L230.815 178.595ZM242.564 169.931L247.194 213.492L260.914 211.85L256.284 168.289L242.564 169.931ZM330.613 164.403L323.77 163.614L323.764 163.655L323.76 163.696L330.613 164.403ZM317.545 185.387L313.365 179.939L308.151 183.988L311.849 189.363L317.545 185.387ZM335.412 211.353L337.327 217.972L346.489 215.2L341.107 207.377L335.412 211.353ZM306.729 220.032L300.473 223.028L302.965 228.37L308.644 226.651L306.729 220.032ZM294.299 193.382L300.555 190.387L298.444 185.86L293.471 186.528L294.299 193.382ZM286.28 194.459L285.451 187.604L279.1 188.457L279.388 194.859L286.28 194.459ZM287.497 221.593L288.104 228.473L294.685 227.805L294.389 221.193L287.497 221.593ZM259.607 224.425L252.724 224.972L253.19 232.019L260.215 231.306L259.607 224.425ZM257.589 194.883L250.705 195.429L250.706 195.444L250.707 195.459L257.589 194.883ZM255.7 165.328L262.585 164.811L262.583 164.78L262.581 164.749L255.7 165.328ZM253.864 135.636L250.902 129.429L246.806 131.434L246.969 135.974L253.864 135.636ZM271.24 129.35L272.743 136.08L272.785 136.07L272.826 136.059L271.24 129.35ZM280.181 127.59L281.082 134.435L281.128 134.428L281.174 134.421L280.181 127.59ZM304.015 127.004L302.61 133.793L302.648 133.8L302.686 133.807L304.015 127.004ZM326.208 141.196L320.395 144.996L320.411 145.02L320.427 145.044L326.208 141.196ZM300.614 155.197L294.24 157.926L294.274 158.007L294.31 158.088L300.614 155.197ZM298.064 151.524L293.211 156.502L293.313 156.601L293.418 156.696L298.064 151.524ZM294.203 149.296L291.912 155.848L292.03 155.888L292.148 155.924L294.203 149.296ZM286.546 149.287L287.869 156.057L288.044 156.02L288.217 155.974L286.546 149.287ZM284.186 149.985L281.762 143.542L277.068 145.369L277.294 150.387L284.186 149.985ZM285.281 174.248L278.389 174.65L278.714 181.858L285.888 181.129L285.281 174.248ZM292.417 172.803L290.195 166.285L290.178 166.291L290.161 166.297L292.417 172.803ZM297.411 170.068L293.199 164.645L293.164 164.673L293.129 164.701L297.411 170.068ZM300.835 165.854L294.717 162.738L294.685 162.8L294.654 162.862L300.835 165.854ZM323.835 155.787C324.097 158.76 324.057 161.358 323.77 163.614L337.456 165.191C337.89 161.782 337.913 158.172 337.579 154.391L323.835 155.787ZM323.76 163.696C323.512 165.842 322.993 167.772 322.234 169.522L334.874 174.903C336.217 171.809 337.071 168.533 337.466 165.11L323.76 163.696ZM322.234 169.522C321.472 171.275 320.414 172.98 319.011 174.64L329.491 183.501C331.722 180.86 333.532 177.994 334.874 174.903L322.234 169.522ZM319.011 174.64C317.565 176.351 315.703 178.124 313.365 179.939L321.725 190.834C324.694 188.529 327.303 186.09 329.491 183.501L319.011 174.64ZM311.849 189.363L329.716 215.33L341.107 207.377L323.24 181.41L311.849 189.363ZM333.497 204.735L304.814 213.414L308.644 226.651L337.327 217.972L333.497 204.735ZM312.986 217.037L300.555 190.387L288.043 196.378L300.473 223.028L312.986 217.037ZM293.471 186.528L285.451 187.604L287.108 201.313L295.128 200.237L293.471 186.528ZM279.388 194.859L280.605 221.992L294.389 221.193L293.171 194.059L279.388 194.859ZM286.889 214.712L259 217.545L260.215 231.306L288.104 228.473L286.889 214.712ZM266.491 223.878C265.835 213.976 265.162 204.119 264.47 194.307L250.707 195.459C251.397 205.251 252.069 215.089 252.724 224.972L266.491 223.878ZM264.472 194.337C263.826 184.541 263.196 174.699 262.585 164.811L248.814 165.844C249.426 175.751 250.057 185.613 250.705 195.429L264.472 194.337ZM262.581 164.749C262.228 159.763 261.879 154.819 261.534 149.919L247.77 151.071C248.116 155.973 248.465 160.918 248.818 165.906L262.581 164.749ZM261.534 149.919C261.194 145.098 260.935 140.225 260.758 135.297L246.969 135.974C247.152 141.057 247.419 146.089 247.77 151.071L261.534 149.919ZM256.826 141.843C259.538 140.515 262.204 139.383 264.824 138.44L260.312 125.428C257.181 126.555 254.044 127.89 250.902 129.429L256.826 141.843ZM264.824 138.44C267.458 137.492 270.098 136.706 272.743 136.08L269.736 122.621C266.57 123.37 263.428 124.307 260.312 125.428L264.824 138.44ZM272.826 136.059C275.544 135.38 278.296 134.839 281.082 134.435L279.28 120.746C276.035 121.216 272.826 121.848 269.653 122.641L272.826 136.059ZM281.174 134.421C284.095 133.957 287.094 133.568 290.17 133.256L288.955 119.495C285.631 119.832 282.375 120.254 279.188 120.76L281.174 134.421ZM290.17 133.256C294.446 132.822 298.585 133.006 302.61 133.793L305.419 120.216C300.033 119.163 294.537 118.928 288.955 119.495L290.17 133.256ZM302.686 133.807C306.652 134.536 310.101 135.866 313.107 137.745L320.517 125.982C315.95 123.127 310.867 121.216 305.344 120.201L302.686 133.807ZM313.107 137.745C316.024 139.569 318.444 141.961 320.395 144.996L332.021 137.397C329.016 132.723 325.173 128.893 320.517 125.982L313.107 137.745ZM320.427 145.044C322.232 147.801 323.439 151.306 323.835 155.787L337.579 154.391C337.019 148.049 335.227 142.291 331.99 137.349L320.427 145.044ZM308.705 159.42C308.487 156.944 307.918 154.547 306.917 152.305L294.31 158.088C294.615 158.771 294.859 159.656 294.961 160.816L308.705 159.42ZM306.987 152.468C306.021 150.143 304.609 148.061 302.711 146.352L293.418 156.696C293.7 156.95 293.987 157.317 294.24 157.926L306.987 152.468ZM302.918 146.547C301.021 144.689 298.75 143.415 296.258 142.667L292.148 155.924C292.703 156.09 293.006 156.301 293.211 156.502L302.918 146.547ZM296.494 142.743C293.885 141.856 291.147 141.681 288.451 141.955L289.665 155.716C290.861 155.594 291.553 155.726 291.912 155.848L296.494 142.743ZM288.451 141.955C287.241 142.077 286.047 142.29 284.874 142.599L288.217 155.974C288.664 155.857 289.145 155.769 289.665 155.716L288.451 141.955ZM285.222 142.517C284.042 142.764 282.887 143.105 281.762 143.542L286.611 156.428C287.004 156.275 287.422 156.15 287.869 156.057L285.222 142.517ZM277.294 150.387L278.389 174.65L292.173 173.847L291.078 149.584L277.294 150.387ZM285.888 181.129L287.445 180.971L286.23 167.21L284.673 167.368L285.888 181.129ZM287.445 180.971C289.896 180.722 292.309 180.16 294.673 179.309L290.161 166.297C288.805 166.785 287.498 167.081 286.23 167.21L287.445 180.971ZM294.639 179.321C297.209 178.411 299.587 177.132 301.692 175.435L293.129 164.701C292.383 165.303 291.432 165.847 290.195 166.285L294.639 179.321ZM301.623 175.49C303.91 173.693 305.73 171.461 307.015 168.847L294.654 162.862C294.312 163.558 293.849 164.135 293.199 164.645L301.623 175.49ZM306.953 168.971C308.515 165.944 308.992 162.67 308.705 159.42L294.961 160.816C295.057 161.896 294.868 162.445 294.717 162.738L306.953 168.971ZM393.928 117.348L400.825 117.09L400.646 109.724L393.321 110.468L393.928 117.348ZM394.504 141.664L395.467 148.499L401.423 147.581L401.403 141.552L394.504 141.664ZM367.13 145.886L366.167 139.051L360.177 139.974L360.232 146.037L367.13 145.886ZM367.204 154.134L360.305 154.286L360.372 161.77L367.811 161.015L367.204 154.134ZM386.532 152.171L393.43 151.962L393.301 144.541L385.924 145.291L386.532 152.171ZM386.882 172.448L387.718 179.301L393.887 178.466L393.78 172.238L386.882 172.448ZM367.482 175.073L366.646 168.22L360.461 169.057L360.584 175.299L367.482 175.073ZM367.67 184.62L360.772 184.846L360.918 192.248L368.277 191.501L367.67 184.62ZM395.17 181.827L402.065 181.505L401.82 174.21L394.563 174.947L395.17 181.827ZM395.582 196.135L388.686 196.39L388.686 196.42L388.687 196.45L395.582 196.135ZM396.113 210.299L396.879 217.162L403.278 216.362L403.005 209.917L396.113 210.299ZM340.319 217.276L333.435 217.821L333.911 225.036L341.086 224.139L340.319 217.276ZM334.128 123.422L333.521 116.541L326.8 117.224L327.244 123.967L334.128 123.422ZM387.032 117.606C387.132 121.724 387.25 125.796 387.386 129.823L401.176 129.176C401.041 125.193 400.924 121.165 400.825 117.09L387.032 117.606ZM387.386 129.823C387.519 133.756 387.592 137.74 387.605 141.776L401.403 141.552C401.389 137.379 401.314 133.253 401.176 129.176L387.386 129.823ZM393.542 134.829L366.167 139.051L368.093 152.721L395.467 148.499L393.542 134.829ZM360.232 146.037L360.305 154.286L374.102 153.983L374.029 145.734L360.232 146.037ZM367.811 161.015L387.139 159.052L385.924 145.291L366.596 147.253L367.811 161.015ZM379.634 152.38L379.984 172.657L393.78 172.238L393.43 151.962L379.634 152.38ZM386.046 165.594L366.646 168.22L368.318 181.927L387.718 179.301L386.046 165.594ZM360.584 175.299L360.772 184.846L374.567 184.394L374.379 174.847L360.584 175.299ZM368.277 191.501L384.362 189.867L383.148 176.106L367.063 177.74L368.277 191.501ZM384.362 189.867L395.778 188.708L394.563 174.947L383.148 176.106L384.362 189.867ZM388.275 182.149C388.435 186.916 388.572 191.663 388.686 196.39L402.479 195.879C402.365 191.107 402.227 186.316 402.065 181.505L388.275 182.149ZM388.687 196.45C388.841 201.174 389.019 205.918 389.22 210.681L403.005 209.917C402.806 205.198 402.63 200.499 402.478 195.82L388.687 196.45ZM395.346 203.437L339.552 210.414L341.086 224.139L396.879 217.162L395.346 203.437ZM347.203 216.731L341.012 122.877L327.244 123.967L333.435 217.821L347.203 216.731ZM334.736 130.302L394.536 124.229L393.321 110.468L333.521 116.541L334.736 130.302ZM485.759 196.87L487.241 203.605L495.103 201.77L492.19 194.285L485.759 196.87ZM453.956 204.294L447.47 206.734L449.53 212.407L455.438 211.028L453.956 204.294ZM448.769 190.012L455.255 187.572L453.447 182.595L448.161 183.132L448.769 190.012ZM433.981 191.514L433.373 184.634L427.856 185.194L427.14 190.709L433.981 191.514ZM432.033 206.52L431.967 213.436L438.084 213.415L438.874 207.325L432.033 206.52ZM398.669 206.633L391.91 205.331L390.229 213.577L398.603 213.548L398.669 206.633ZM416.847 117.51L415.895 110.674L411.067 111.411L410.089 116.209L416.847 117.51ZM452.748 112.03L459.18 109.444L457.204 104.367L451.796 105.193L452.748 112.03ZM444.68 170.378L445.287 177.258L453.822 176.392L451.264 168.228L444.68 170.378ZM437.755 148.279L444.34 146.129L430.907 147.531L437.755 148.279ZM434.951 171.366L428.103 170.617L427.071 179.108L435.558 178.247L434.951 171.366ZM484.277 190.135L452.474 197.559L455.438 211.028L487.241 203.605L484.277 190.135ZM460.442 201.854L455.255 187.572L442.283 192.453L447.47 206.734L460.442 201.854ZM448.161 183.132L433.373 184.634L434.588 198.395L449.376 196.893L448.161 183.132ZM427.14 190.709L425.192 205.715L438.874 207.325L440.822 192.319L427.14 190.709ZM432.099 199.604L398.735 199.717L398.603 213.548L431.967 213.436L432.099 199.604ZM405.427 207.934L423.605 118.812L410.089 116.209L391.91 205.331L405.427 207.934ZM417.799 124.347L453.7 118.866L451.796 105.193L415.895 110.674L417.799 124.347ZM446.317 114.615L479.327 199.455L492.19 194.285L459.18 109.444L446.317 114.615ZM451.264 168.228L444.34 146.129L431.171 150.429L438.095 172.528L451.264 168.228ZM430.907 147.531L428.103 170.617L441.799 172.114L444.604 149.028L430.907 147.531ZM435.558 178.247L445.287 177.258L444.072 163.497L434.343 164.485L435.558 178.247ZM540.319 103.267L547.204 102.731L546.747 95.6586L539.699 96.3875L540.319 103.267ZM542.101 130.867L542.985 137.714L549.403 136.8L548.986 130.332L542.101 130.867ZM522.842 133.61L521.959 126.763L515.894 127.626L515.944 133.755L522.842 133.61ZM523.347 195.674L524.311 202.509L530.295 201.584L530.246 195.528L523.347 195.674ZM496.103 199.882L489.229 200.566L489.855 207.831L497.067 206.717L496.103 199.882ZM490.798 138.306L497.671 137.622L497.045 130.345L489.823 131.472L490.798 138.306ZM471.562 141.308L464.677 141.83L465.145 149.295L472.537 148.141L471.562 141.308ZM469.634 110.577L469.014 103.697L462.328 104.389L462.749 111.1L469.634 110.577ZM533.435 103.802L535.217 131.403L548.986 130.332L547.204 102.731L533.435 103.802ZM541.218 124.02L521.959 126.763L523.725 140.457L542.985 137.714L541.218 124.02ZM515.944 133.755L516.449 195.819L530.246 195.528L529.741 133.464L515.944 133.755ZM522.383 188.839L495.138 193.047L497.067 206.717L524.311 202.509L522.383 188.839ZM502.976 199.199L497.671 137.622L483.925 138.989L489.229 200.566L502.976 199.199ZM489.823 131.472L470.587 134.474L472.537 148.141L491.773 145.139L489.823 131.472ZM478.447 140.785L476.52 110.054L462.749 111.1L464.677 141.83L478.447 140.785ZM470.254 117.456L540.939 110.146L539.699 96.3875L469.014 103.697L470.254 117.456ZM575.347 96.0401L582.245 95.879L582.168 88.4051L574.739 89.1595L575.347 96.0401ZM576.059 164.897L576.666 171.778L583.023 171.132L582.957 164.736L576.059 164.897ZM552.061 167.335L545.215 168.281L546.04 174.889L552.668 174.215L552.061 167.335ZM543.566 99.2679L542.958 92.3872L535.834 93.1108L536.72 100.214L543.566 99.2679ZM578.229 190.231L571.708 188.058L578.229 190.231ZM575.624 194.82L570.414 190.355L570.335 190.447L570.259 190.543L575.624 194.82ZM571.601 198.177L568.375 192.106L568.307 192.143L568.241 192.181L571.601 198.177ZM561.029 199.251L563.281 192.685L563.209 192.661L563.136 192.638L561.029 199.251ZM553.129 192.78L547.031 196.093L547.067 196.16L547.104 196.227L553.129 192.78ZM552.189 182.13L545.647 180.02L545.623 180.092L545.6 180.164L552.189 182.13ZM573.922 175.533L569.4 180.814L569.491 180.892L569.585 180.967L573.922 175.533ZM568.448 96.2013L569.16 165.059L582.957 164.736L582.245 95.879L568.448 96.2013ZM575.451 158.017L551.453 160.454L552.668 174.215L576.666 171.778L575.451 158.017ZM558.906 166.389L550.411 98.322L536.72 100.214L545.215 168.281L558.906 166.389ZM544.173 106.148L575.954 102.921L574.739 89.1595L542.958 92.3872L544.173 106.148ZM571.99 185.492C572.078 186.484 571.963 187.314 571.708 188.058L584.75 192.403C585.675 189.707 585.983 186.913 585.734 184.096L571.99 185.492ZM571.708 188.058C571.397 188.967 570.964 189.712 570.414 190.355L580.834 199.285C582.578 197.248 583.882 194.934 584.75 192.403L571.708 188.058ZM570.259 190.543C569.759 191.169 569.151 191.684 568.375 192.106L574.828 204.247C577.215 202.95 579.29 201.228 580.99 199.097L570.259 190.543ZM568.241 192.181C567.539 192.583 566.763 192.84 565.838 192.934L567.053 206.695C569.846 206.411 572.508 205.577 574.962 204.173L568.241 192.181ZM565.838 192.934C564.846 193.034 564.02 192.931 563.281 192.685L558.778 205.816C561.455 206.709 564.239 206.981 567.053 206.695L565.838 192.934ZM563.136 192.638C562.277 192.373 561.533 191.97 560.856 191.411L551.996 202.128C554.049 203.825 556.373 205.076 558.922 205.863L563.136 192.638ZM560.856 191.411C560.215 190.881 559.646 190.211 559.154 189.333L547.104 196.227C548.373 198.49 550.001 200.479 551.996 202.128L560.856 191.411ZM559.227 189.467C558.848 188.754 558.586 187.913 558.493 186.862L544.749 188.258C544.993 191.018 545.736 193.656 547.031 196.093L559.227 189.467ZM558.493 186.862C558.406 185.878 558.506 184.974 558.777 184.096L545.6 180.164C544.786 182.803 544.507 185.519 544.749 188.258L558.493 186.862ZM558.731 184.239C559.064 183.239 559.503 182.47 560.012 181.854L549.435 173.111C547.736 175.165 546.486 177.495 545.647 180.02L558.731 184.239ZM560.012 181.854C560.607 181.135 561.311 180.539 562.166 180.049L555.445 168.058C553.143 169.375 551.126 171.064 549.435 173.111L560.012 181.854ZM562.166 180.049C562.848 179.659 563.642 179.391 564.634 179.29L563.419 165.529C560.605 165.815 557.918 166.643 555.445 168.058L562.166 180.049ZM564.634 179.29C565.558 179.196 566.366 179.293 567.125 179.546L571.629 166.414C568.973 165.529 566.213 165.245 563.419 165.529L564.634 179.29ZM567.125 179.546C568.028 179.846 568.766 180.271 569.4 180.814L578.444 170.251C576.434 168.529 574.143 167.252 571.629 166.414L567.125 179.546ZM569.585 180.967C570.205 181.461 570.757 182.102 571.232 182.97L583.346 176.191C582.054 173.832 580.361 171.774 578.258 170.098L569.585 180.967ZM571.232 182.97C571.657 183.745 571.908 184.566 571.99 185.492L585.734 184.096C585.487 181.298 584.689 178.643 583.346 176.191L571.232 182.97Z" fill="url(#paint1_linear_1_710)" mask="url(#path-1-outside-1_1_710)"/>
<path d="M678.098 95.2857C678.697 93.4431 681.303 93.4431 681.902 95.2857L685.388 106.015C685.656 106.839 686.424 107.397 687.29 107.397H698.572C700.51 107.397 701.315 109.876 699.748 111.015L690.621 117.646C689.92 118.156 689.626 119.058 689.894 119.882L693.38 130.612C693.979 132.455 691.87 133.987 690.303 132.848L681.176 126.217C680.475 125.708 679.525 125.708 678.824 126.217L669.697 132.848C668.13 133.987 666.021 132.455 666.62 130.612L670.106 119.882C670.374 119.058 670.08 118.156 669.379 117.646L660.252 111.015C658.685 109.876 659.49 107.397 661.428 107.397H672.71C673.576 107.397 674.344 106.839 674.612 106.015L678.098 95.2857Z" fill="url(#paint2_linear_1_710)"/>
<path d="M182.902 114.578C182.303 116.42 179.697 116.42 179.098 114.578L175.612 103.848C175.344 103.024 174.576 102.466 173.71 102.466H162.428C160.49 102.466 159.685 99.9869 161.252 98.848L170.379 92.2169C171.08 91.7076 171.374 90.8048 171.106 89.9808L167.62 79.2513C167.021 77.4087 169.13 75.8764 170.697 77.0152L179.824 83.6464C180.525 84.1557 181.475 84.1557 182.176 83.6464L191.303 77.0152C192.87 75.8764 194.979 77.4087 194.38 79.2513L190.894 89.9808C190.626 90.8048 190.92 91.7076 191.621 92.2169L200.748 98.848C202.315 99.9869 201.51 102.466 199.572 102.466H188.29C187.424 102.466 186.656 103.024 186.388 103.848L182.902 114.578Z" fill="url(#paint3_linear_1_710)"/>
<path d="M219.718 116.088C219.488 118.012 216.931 118.519 215.986 116.827L213.489 112.36C213.066 111.604 212.204 111.206 211.354 111.374L206.334 112.368C204.434 112.745 203.162 110.469 204.478 109.048L207.955 105.292C208.544 104.657 208.656 103.714 208.233 102.958L205.736 98.4904C204.791 96.7992 206.562 94.8864 208.321 95.6989L212.967 97.8453C213.753 98.2087 214.684 98.0242 215.273 97.3885L218.75 93.633C220.066 92.2114 222.433 93.3046 222.204 95.2285L221.598 100.31C221.495 101.171 221.959 101.999 222.745 102.363L227.391 104.509C229.15 105.322 228.842 107.91 226.941 108.287L221.921 109.281C221.071 109.449 220.426 110.146 220.323 111.006L219.718 116.088Z" fill="url(#paint4_linear_1_710)"/>
<path d="M594.861 91.3388C595.663 93.1025 593.739 94.862 592.054 93.9066L587.601 91.3826C586.848 90.9553 585.905 91.062 585.265 91.6468L581.489 95.1012C580.059 96.4089 577.792 95.1234 578.18 93.2251L579.204 88.2108C579.378 87.3619 578.985 86.4978 578.231 86.0705L573.779 83.5466C572.093 82.5911 572.615 80.0371 574.54 79.8194L579.626 79.2443C580.487 79.1469 581.187 78.5063 581.361 77.6573L582.385 72.643C582.773 70.7448 585.363 70.4519 586.165 72.2156L588.284 76.8745C588.642 77.6632 589.468 78.1313 590.329 78.034L595.415 77.4589C597.34 77.2412 598.419 79.6142 596.989 80.9219L593.213 84.3764C592.574 84.9612 592.384 85.8912 592.742 86.6799L594.861 91.3388Z" fill="url(#paint5_linear_1_710)"/>
<path d="M208.739 266.649C208.364 267.542 207.065 267.435 206.843 266.492L205.785 261.999C205.685 261.577 205.326 261.268 204.894 261.232L200.294 260.85C199.329 260.77 199.03 259.502 199.858 258.999L203.803 256.604C204.174 256.379 204.357 255.941 204.258 255.52L203.199 251.027C202.977 250.084 204.091 249.408 204.825 250.04L208.322 253.052C208.651 253.335 209.124 253.374 209.494 253.15L213.44 250.754C214.268 250.252 215.255 251.102 214.881 251.996L213.097 256.253C212.929 256.652 213.038 257.114 213.366 257.397L216.863 260.409C217.597 261.042 217.093 262.244 216.128 262.164L211.528 261.782C211.096 261.746 210.691 261.993 210.523 262.392L208.739 266.649Z" fill="url(#paint6_linear_1_710)"/>
<path d="M173.99 282.653C173.132 283.103 172.2 282.192 172.629 281.324L173.765 279.03C173.957 278.642 173.877 278.174 173.568 277.871L171.737 276.083C171.044 275.406 171.623 274.237 172.581 274.378L175.113 274.749C175.542 274.812 175.962 274.592 176.154 274.203L177.29 271.91C177.72 271.042 179.009 271.231 179.172 272.186L179.601 274.709C179.674 275.136 180.014 275.467 180.442 275.53L182.974 275.901C183.933 276.042 184.152 277.327 183.294 277.776L181.027 278.965C180.643 279.166 180.433 279.591 180.505 280.018L180.935 282.541C181.097 283.496 179.943 284.101 179.25 283.424L177.42 281.635C177.11 281.333 176.64 281.264 176.257 281.465L173.99 282.653Z" fill="url(#paint7_linear_1_710)" fill-opacity="0.6"/>
<path d="M559.027 33.2904C560.348 31.8732 562.711 32.9744 562.475 34.8974L560.815 48.4391C560.71 49.2991 561.17 50.1292 561.956 50.4952L574.322 56.2584C576.078 57.0768 575.76 59.6643 573.859 60.0344L560.467 62.6403C559.616 62.8058 558.969 63.5002 558.864 64.3602L557.204 77.9018C556.968 79.8249 554.409 80.3228 553.47 78.6285L546.853 66.6974C546.433 65.9397 545.572 65.5387 544.722 65.7042L531.33 68.3102C529.428 68.6803 528.164 66.4006 529.485 64.9833L538.788 55.0036C539.378 54.3698 539.494 53.4276 539.074 52.6699L532.457 40.7388C531.517 39.0445 533.295 37.1376 535.051 37.9561L547.417 43.7193C548.202 44.0853 549.134 43.904 549.725 43.2702L559.027 33.2904Z" fill="url(#paint8_linear_1_710)"/>
<path d="M591.538 143.196C590.375 141.646 591.875 139.514 593.727 140.085L623.674 149.314C624.502 149.569 625.4 149.262 625.899 148.553L643.93 122.924C645.045 121.339 647.536 122.107 647.566 124.044L648.043 155.378C648.056 156.244 648.626 157.003 649.454 157.259L679.401 166.488C681.253 167.058 681.292 169.665 679.459 170.291L649.806 180.428C648.986 180.708 648.44 181.484 648.453 182.351L648.93 213.684C648.96 215.621 646.493 216.465 645.331 214.915L626.527 189.846C626.007 189.152 625.1 188.873 624.28 189.153L594.628 199.289C592.794 199.916 591.23 197.831 592.345 196.246L610.377 170.616C610.875 169.908 610.861 168.959 610.341 168.265L591.538 143.196Z" fill="url(#paint9_linear_1_710)"/>
<path d="M194.834 265.036C195.996 266.586 194.496 268.718 192.645 268.148L162.697 258.918C161.869 258.663 160.971 258.97 160.472 259.679L142.441 285.309C141.326 286.893 138.835 286.126 138.805 284.188L138.328 252.855C138.315 251.988 137.746 251.229 136.918 250.974L106.97 241.745C105.119 241.174 105.079 238.568 106.912 237.941L136.565 227.805C137.385 227.525 137.931 226.748 137.918 225.882L137.441 194.548C137.411 192.611 139.878 191.768 141.041 193.318L159.844 218.387C160.364 219.08 161.271 219.36 162.091 219.079L191.743 208.943C193.577 208.316 195.141 210.402 194.026 211.986L175.994 237.616C175.496 238.325 175.51 239.274 176.03 239.967L194.834 265.036Z" fill="url(#paint10_linear_1_710)"/>
<defs>
<linearGradient id="paint0_linear_1_710" x1="409.499" y1="204.432" x2="365.541" y2="76.0479" gradientUnits="userSpaceOnUse">
<stop stop-color="#93FF60"/>
<stop offset="0.474578" stop-color="#D9FF6D"/>
<stop offset="1" stop-color="#EAFF69"/>
</linearGradient>
<linearGradient id="paint1_linear_1_710" x1="216.32" y1="140.915" x2="646.969" y2="108.385" gradientUnits="userSpaceOnUse">
<stop stop-color="#286D08"/>
<stop offset="1" stop-color="#105200"/>
</linearGradient>
<linearGradient id="paint2_linear_1_710" x1="680" y1="89.4316" x2="680" y2="141.432" gradientUnits="userSpaceOnUse">
<stop stop-color="#E0FEAE"/>
<stop offset="1" stop-color="#8BD131"/>
</linearGradient>
<linearGradient id="paint3_linear_1_710" x1="181" y1="120.432" x2="181" y2="68.4316" gradientUnits="userSpaceOnUse">
<stop stop-color="#E0FEAE"/>
<stop offset="1" stop-color="#8BD131"/>
</linearGradient>
<linearGradient id="paint4_linear_1_710" x1="218.989" y1="122.2" x2="212.182" y2="87.8353" gradientUnits="userSpaceOnUse">
<stop stop-color="#E0FEAE"/>
<stop offset="1" stop-color="#8BD131"/>
</linearGradient>
<linearGradient id="paint5_linear_1_710" x1="597.409" y1="96.9421" x2="573.763" y2="71.0933" gradientUnits="userSpaceOnUse">
<stop stop-color="#E0FEAE"/>
<stop offset="1" stop-color="#8BD131"/>
</linearGradient>
<linearGradient id="paint6_linear_1_710" x1="207.549" y1="269.487" x2="209.465" y2="246.389" gradientUnits="userSpaceOnUse">
<stop stop-color="#E0FEAE"/>
<stop offset="1" stop-color="#8BD131"/>
</linearGradient>
<linearGradient id="paint7_linear_1_710" x1="171.264" y1="284.082" x2="183.507" y2="271.553" gradientUnits="userSpaceOnUse">
<stop stop-color="#F1FFDE"/>
<stop offset="1" stop-color="#82FF63"/>
</linearGradient>
<linearGradient id="paint8_linear_1_710" x1="563.224" y1="28.7878" x2="538.512" y2="81.8121" gradientUnits="userSpaceOnUse">
<stop stop-color="#E0FEAE"/>
<stop offset="1" stop-color="#8BD131"/>
</linearGradient>
<linearGradient id="paint9_linear_1_710" x1="587.844" y1="138.272" x2="675.527" y2="199.96" gradientUnits="userSpaceOnUse">
<stop stop-color="#E0FEAE"/>
<stop offset="1" stop-color="#8BD131"/>
</linearGradient>
<linearGradient id="paint10_linear_1_710" x1="198.527" y1="269.96" x2="110.845" y2="208.272" gradientUnits="userSpaceOnUse">
<stop stop-color="#E0FEAE"/>
<stop offset="1" stop-color="#8BD131"/>
</linearGradient>
</defs>
</svg>
