<svg width="787" height="375" viewBox="0 0 787 375" fill="none" xmlns="http://www.w3.org/2000/svg">
<g filter="url(#filter0_di_1_747)">
<mask id="path-1-outside-1_1_747" maskUnits="userSpaceOnUse" x="219.157" y="118.197" width="354.165" height="147.523" fill="black">
<rect fill="white" x="219.157" y="118.197" width="354.165" height="147.523"/>
<path d="M315.773 234.504C313.966 237.265 311.655 239.749 308.84 241.957C306.024 244.165 302.964 246.07 299.659 247.672C296.354 249.275 292.934 250.561 289.398 251.532C285.867 252.546 282.479 253.218 279.236 253.547C272.967 254.184 267.095 253.644 261.621 251.929C256.147 250.213 251.312 247.581 247.116 244.032C242.959 240.436 239.563 236.063 236.927 230.914C234.291 225.765 232.7 220.095 232.154 213.905C231.737 209.186 231.871 204.52 232.554 199.908C233.234 195.252 234.392 190.832 236.03 186.647C237.707 182.414 239.847 178.484 242.449 174.856C245.048 171.185 248.078 167.95 251.54 165.153C255.001 162.355 258.856 160.063 263.105 158.278C267.354 156.492 271.964 155.347 276.937 154.842C278.796 154.653 280.793 154.537 282.927 154.495C285.057 154.41 287.177 154.457 289.287 154.636C291.436 154.767 293.534 155.056 295.58 155.504C297.627 155.951 299.513 156.567 301.241 157.353L301.614 182.345C299.113 181.681 296.551 181.33 293.93 181.29C291.348 181.203 288.825 181.285 286.361 181.535C282.901 181.886 279.706 182.757 276.775 184.147C273.883 185.489 271.401 187.27 269.328 189.489C267.299 191.705 265.762 194.307 264.717 197.296C263.672 200.285 263.308 203.577 263.625 207.17C263.824 209.421 264.319 211.577 265.112 213.637C265.901 215.653 266.973 217.423 268.329 218.945C269.725 220.419 271.374 221.562 273.278 222.374C275.225 223.181 277.41 223.461 279.831 223.215C281.474 223.048 283.141 222.661 284.833 222.052C286.567 221.439 288.016 220.549 289.178 219.383L288.99 214.291L273.401 215.612L272.46 196.051C278.883 195.18 285.311 194.353 291.742 193.569C298.169 192.741 304.636 191.866 311.142 190.943L315.773 234.504ZM398.055 193.255C398.403 197.195 398.285 201.051 397.702 204.823C397.115 208.552 396.098 212.106 394.651 215.485C393.248 218.86 391.432 222.015 389.204 224.949C387.016 227.836 384.471 230.388 381.569 232.605C378.711 234.817 375.535 236.647 372.041 238.093C368.544 239.497 364.785 240.403 360.764 240.811C356.872 241.207 353.11 241.086 349.476 240.451C345.886 239.811 342.477 238.759 339.251 237.296C336.02 235.789 333.04 233.908 330.311 231.652C327.62 229.348 325.253 226.749 323.209 223.855C321.204 220.913 319.548 217.718 318.24 214.269C316.976 210.816 316.173 207.162 315.833 203.309C315.501 199.543 315.63 195.817 316.221 192.131C316.808 188.402 317.803 184.85 319.206 181.475C320.653 178.096 322.469 174.941 324.653 172.011C326.838 169.081 329.336 166.49 332.147 164.239C335.002 161.983 338.133 160.137 341.54 158.698C344.947 157.26 348.596 156.344 352.487 155.949C358.757 155.312 364.551 155.706 369.868 157.132C375.229 158.553 379.886 160.898 383.839 164.165C387.831 167.385 391.05 171.47 393.493 176.42C395.977 181.323 397.497 186.934 398.055 193.255ZM369.407 197.868C369.242 196.007 368.803 194.238 368.088 192.564C367.412 190.841 366.496 189.362 365.34 188.125C364.18 186.845 362.785 185.873 361.156 185.208C359.566 184.496 357.777 184.241 355.788 184.443C353.756 184.65 351.972 185.202 350.437 186.101C348.902 186.999 347.609 188.157 346.556 189.574C345.542 190.944 344.809 192.525 344.357 194.319C343.901 196.069 343.756 197.896 343.925 199.801C344.085 201.619 344.505 203.411 345.184 205.177C345.864 206.943 346.787 208.509 347.955 209.875C349.123 211.242 350.503 212.303 352.097 213.058C353.734 213.809 355.568 214.082 357.601 213.875C359.633 213.669 361.415 213.095 362.946 212.153C364.516 211.164 365.804 209.941 366.81 208.484C367.812 206.985 368.537 205.317 368.986 203.48C369.435 201.644 369.575 199.773 369.407 197.868ZM482.761 184.652C483.109 188.592 482.991 192.448 482.408 196.22C481.821 199.949 480.804 203.503 479.357 206.882C477.954 210.257 476.138 213.412 473.91 216.347C471.722 219.233 469.177 221.785 466.275 224.002C463.417 226.214 460.241 228.044 456.747 229.491C453.25 230.894 449.491 231.8 445.47 232.208C441.578 232.604 437.816 232.484 434.182 231.848C430.592 231.208 427.183 230.156 423.957 228.693C420.726 227.186 417.746 225.305 415.017 223.049C412.326 220.745 409.959 218.146 407.915 215.252C405.91 212.31 404.254 209.115 402.946 205.666C401.682 202.213 400.879 198.559 400.539 194.706C400.207 190.94 400.336 187.214 400.927 183.528C401.514 179.799 402.509 176.247 403.912 172.872C405.359 169.493 407.175 166.338 409.359 163.408C411.544 160.478 414.042 157.887 416.853 155.636C419.708 153.38 422.839 151.534 426.246 150.096C429.653 148.658 433.302 147.741 437.193 147.346C443.463 146.709 449.257 147.103 454.574 148.529C459.935 149.95 464.592 152.295 468.545 155.562C472.537 158.783 475.756 162.868 478.199 167.817C480.683 172.72 482.203 178.331 482.761 184.652ZM454.113 189.265C453.948 187.404 453.509 185.636 452.794 183.961C452.118 182.239 451.202 180.759 450.046 179.522C448.886 178.242 447.491 177.27 445.862 176.606C444.272 175.893 442.483 175.638 440.494 175.84C438.462 176.047 436.678 176.599 435.143 177.498C433.608 178.396 432.315 179.554 431.262 180.971C430.248 182.341 429.515 183.923 429.063 185.716C428.607 187.466 428.462 189.293 428.631 191.198C428.791 193.016 429.211 194.808 429.89 196.574C430.57 198.34 431.493 199.906 432.661 201.272C433.829 202.639 435.209 203.7 436.803 204.455C438.44 205.206 440.274 205.479 442.307 205.272C444.339 205.066 446.121 204.492 447.652 203.55C449.222 202.561 450.51 201.338 451.516 199.882C452.518 198.382 453.243 196.714 453.692 194.877C454.141 193.041 454.281 191.17 454.113 189.265ZM560.282 171.013C560.817 177.074 560.522 182.63 559.398 187.68C558.269 192.687 556.468 197.238 553.993 201.333C551.558 205.381 548.537 208.964 544.93 212.082C541.322 215.201 537.305 217.88 532.878 220.121C528.448 222.318 523.676 224.113 518.564 225.506C513.491 226.851 508.231 227.8 502.783 228.353C500.75 228.56 498.757 228.718 496.804 228.83C494.847 228.897 492.843 228.926 490.791 228.916L484.914 141.582C489.537 139.583 494.329 138.026 499.292 136.911C504.293 135.748 509.28 134.914 514.253 134.409C520.436 133.781 526.204 134.134 531.557 135.469C536.91 136.803 541.623 139.033 545.694 142.158C549.765 145.282 553.062 149.272 555.585 154.127C558.151 158.977 559.717 164.606 560.282 171.013ZM534.057 177.87C533.894 175.528 533.436 173.303 532.682 171.195C531.972 169.083 530.918 167.268 529.519 165.75C528.159 164.185 526.484 163.001 524.493 162.198C522.499 161.353 520.179 161.02 517.534 161.202L518.494 201.728C521.054 201.075 523.336 199.991 525.34 198.477C527.34 196.92 529.013 195.112 530.358 193.054C531.743 190.947 532.743 188.684 533.358 186.262C534.013 183.793 534.272 181.299 534.137 178.779L534.057 177.87Z"/>
</mask>
<path d="M315.773 234.504C313.966 237.265 311.655 239.749 308.84 241.957C306.024 244.165 302.964 246.07 299.659 247.672C296.354 249.275 292.934 250.561 289.398 251.532C285.867 252.546 282.479 253.218 279.236 253.547C272.967 254.184 267.095 253.644 261.621 251.929C256.147 250.213 251.312 247.581 247.116 244.032C242.959 240.436 239.563 236.063 236.927 230.914C234.291 225.765 232.7 220.095 232.154 213.905C231.737 209.186 231.871 204.52 232.554 199.908C233.234 195.252 234.392 190.832 236.03 186.647C237.707 182.414 239.847 178.484 242.449 174.856C245.048 171.185 248.078 167.95 251.54 165.153C255.001 162.355 258.856 160.063 263.105 158.278C267.354 156.492 271.964 155.347 276.937 154.842C278.796 154.653 280.793 154.537 282.927 154.495C285.057 154.41 287.177 154.457 289.287 154.636C291.436 154.767 293.534 155.056 295.58 155.504C297.627 155.951 299.513 156.567 301.241 157.353L301.614 182.345C299.113 181.681 296.551 181.33 293.93 181.29C291.348 181.203 288.825 181.285 286.361 181.535C282.901 181.886 279.706 182.757 276.775 184.147C273.883 185.489 271.401 187.27 269.328 189.489C267.299 191.705 265.762 194.307 264.717 197.296C263.672 200.285 263.308 203.577 263.625 207.17C263.824 209.421 264.319 211.577 265.112 213.637C265.901 215.653 266.973 217.423 268.329 218.945C269.725 220.419 271.374 221.562 273.278 222.374C275.225 223.181 277.41 223.461 279.831 223.215C281.474 223.048 283.141 222.661 284.833 222.052C286.567 221.439 288.016 220.549 289.178 219.383L288.99 214.291L273.401 215.612L272.46 196.051C278.883 195.18 285.311 194.353 291.742 193.569C298.169 192.741 304.636 191.866 311.142 190.943L315.773 234.504ZM398.055 193.255C398.403 197.195 398.285 201.051 397.702 204.823C397.115 208.552 396.098 212.106 394.651 215.485C393.248 218.86 391.432 222.015 389.204 224.949C387.016 227.836 384.471 230.388 381.569 232.605C378.711 234.817 375.535 236.647 372.041 238.093C368.544 239.497 364.785 240.403 360.764 240.811C356.872 241.207 353.11 241.086 349.476 240.451C345.886 239.811 342.477 238.759 339.251 237.296C336.02 235.789 333.04 233.908 330.311 231.652C327.62 229.348 325.253 226.749 323.209 223.855C321.204 220.913 319.548 217.718 318.24 214.269C316.976 210.816 316.173 207.162 315.833 203.309C315.501 199.543 315.63 195.817 316.221 192.131C316.808 188.402 317.803 184.85 319.206 181.475C320.653 178.096 322.469 174.941 324.653 172.011C326.838 169.081 329.336 166.49 332.147 164.239C335.002 161.983 338.133 160.137 341.54 158.698C344.947 157.26 348.596 156.344 352.487 155.949C358.757 155.312 364.551 155.706 369.868 157.132C375.229 158.553 379.886 160.898 383.839 164.165C387.831 167.385 391.05 171.47 393.493 176.42C395.977 181.323 397.497 186.934 398.055 193.255ZM369.407 197.868C369.242 196.007 368.803 194.238 368.088 192.564C367.412 190.841 366.496 189.362 365.34 188.125C364.18 186.845 362.785 185.873 361.156 185.208C359.566 184.496 357.777 184.241 355.788 184.443C353.756 184.65 351.972 185.202 350.437 186.101C348.902 186.999 347.609 188.157 346.556 189.574C345.542 190.944 344.809 192.525 344.357 194.319C343.901 196.069 343.756 197.896 343.925 199.801C344.085 201.619 344.505 203.411 345.184 205.177C345.864 206.943 346.787 208.509 347.955 209.875C349.123 211.242 350.503 212.303 352.097 213.058C353.734 213.809 355.568 214.082 357.601 213.875C359.633 213.669 361.415 213.095 362.946 212.153C364.516 211.164 365.804 209.941 366.81 208.484C367.812 206.985 368.537 205.317 368.986 203.48C369.435 201.644 369.575 199.773 369.407 197.868ZM482.761 184.652C483.109 188.592 482.991 192.448 482.408 196.22C481.821 199.949 480.804 203.503 479.357 206.882C477.954 210.257 476.138 213.412 473.91 216.347C471.722 219.233 469.177 221.785 466.275 224.002C463.417 226.214 460.241 228.044 456.747 229.491C453.25 230.894 449.491 231.8 445.47 232.208C441.578 232.604 437.816 232.484 434.182 231.848C430.592 231.208 427.183 230.156 423.957 228.693C420.726 227.186 417.746 225.305 415.017 223.049C412.326 220.745 409.959 218.146 407.915 215.252C405.91 212.31 404.254 209.115 402.946 205.666C401.682 202.213 400.879 198.559 400.539 194.706C400.207 190.94 400.336 187.214 400.927 183.528C401.514 179.799 402.509 176.247 403.912 172.872C405.359 169.493 407.175 166.338 409.359 163.408C411.544 160.478 414.042 157.887 416.853 155.636C419.708 153.38 422.839 151.534 426.246 150.096C429.653 148.658 433.302 147.741 437.193 147.346C443.463 146.709 449.257 147.103 454.574 148.529C459.935 149.95 464.592 152.295 468.545 155.562C472.537 158.783 475.756 162.868 478.199 167.817C480.683 172.72 482.203 178.331 482.761 184.652ZM454.113 189.265C453.948 187.404 453.509 185.636 452.794 183.961C452.118 182.239 451.202 180.759 450.046 179.522C448.886 178.242 447.491 177.27 445.862 176.606C444.272 175.893 442.483 175.638 440.494 175.84C438.462 176.047 436.678 176.599 435.143 177.498C433.608 178.396 432.315 179.554 431.262 180.971C430.248 182.341 429.515 183.923 429.063 185.716C428.607 187.466 428.462 189.293 428.631 191.198C428.791 193.016 429.211 194.808 429.89 196.574C430.57 198.34 431.493 199.906 432.661 201.272C433.829 202.639 435.209 203.7 436.803 204.455C438.44 205.206 440.274 205.479 442.307 205.272C444.339 205.066 446.121 204.492 447.652 203.55C449.222 202.561 450.51 201.338 451.516 199.882C452.518 198.382 453.243 196.714 453.692 194.877C454.141 193.041 454.281 191.17 454.113 189.265ZM560.282 171.013C560.817 177.074 560.522 182.63 559.398 187.68C558.269 192.687 556.468 197.238 553.993 201.333C551.558 205.381 548.537 208.964 544.93 212.082C541.322 215.201 537.305 217.88 532.878 220.121C528.448 222.318 523.676 224.113 518.564 225.506C513.491 226.851 508.231 227.8 502.783 228.353C500.75 228.56 498.757 228.718 496.804 228.83C494.847 228.897 492.843 228.926 490.791 228.916L484.914 141.582C489.537 139.583 494.329 138.026 499.292 136.911C504.293 135.748 509.28 134.914 514.253 134.409C520.436 133.781 526.204 134.134 531.557 135.469C536.91 136.803 541.623 139.033 545.694 142.158C549.765 145.282 553.062 149.272 555.585 154.127C558.151 158.977 559.717 164.606 560.282 171.013ZM534.057 177.87C533.894 175.528 533.436 173.303 532.682 171.195C531.972 169.083 530.918 167.268 529.519 165.75C528.159 164.185 526.484 163.001 524.493 162.198C522.499 161.353 520.179 161.02 517.534 161.202L518.494 201.728C521.054 201.075 523.336 199.991 525.34 198.477C527.34 196.92 529.013 195.112 530.358 193.054C531.743 190.947 532.743 188.684 533.358 186.262C534.013 183.793 534.272 181.299 534.137 178.779L534.057 177.87Z" fill="url(#paint0_linear_1_747)"/>
<path d="M315.773 234.504L321.4 238.163L322.739 236.117L322.482 233.701L315.773 234.504ZM299.659 247.673L296.785 241.591L299.659 247.673ZM289.398 251.532L287.695 245.01L287.656 245.021L287.618 245.032L289.398 251.532ZM247.116 244.032L242.67 249.177L242.698 249.201L242.726 249.225L247.116 244.032ZM236.927 230.914L230.916 234.064L236.927 230.914ZM232.554 199.908L239.228 200.817L239.229 200.809L239.23 200.802L232.554 199.908ZM236.03 186.647L229.764 184.221L229.758 184.234L229.753 184.248L236.03 186.647ZM242.449 174.856L247.909 178.758L247.922 178.74L247.934 178.723L242.449 174.856ZM282.927 154.495L282.972 161.258L283.04 161.256L283.109 161.254L282.927 154.495ZM289.287 154.636L288.632 161.375L288.711 161.382L288.79 161.387L289.287 154.636ZM301.241 157.353L307.987 157.164L307.923 152.929L304.094 151.187L301.241 157.353ZM301.614 182.345L299.811 188.885L308.495 191.187L308.36 182.156L301.614 182.345ZM293.93 181.29L293.616 188.05L293.678 188.052L293.741 188.053L293.93 181.29ZM276.775 184.147L279.544 190.278L279.569 190.266L279.595 190.254L276.775 184.147ZM269.328 189.489L264.43 184.902L264.408 184.926L264.386 184.95L269.328 189.489ZM265.112 213.637L258.813 216.142L258.82 216.159L258.827 216.176L265.112 213.637ZM268.329 218.945L263.271 223.486L263.337 223.561L263.406 223.633L268.329 218.945ZM273.278 222.374L270.571 228.604L270.601 228.617L270.632 228.629L273.278 222.374ZM284.833 222.052L282.663 215.676L282.645 215.683L282.626 215.689L284.833 222.052ZM289.178 219.383L293.92 224.132L296.03 222.015L295.92 219.046L289.178 219.383ZM288.99 214.291L295.733 213.954L295.475 206.961L288.508 207.552L288.99 214.291ZM273.401 215.612L266.662 216.025L266.995 222.936L273.883 222.352L273.401 215.612ZM272.46 196.051L271.641 189.349L265.419 190.192L265.721 196.464L272.46 196.051ZM291.742 193.569L292.471 200.283L292.494 200.28L292.516 200.277L291.742 193.569ZM311.142 190.943L317.851 190.141L317.122 183.276L310.282 184.246L311.142 190.943ZM310.146 230.845C308.784 232.927 307 234.866 304.725 236.65L312.954 247.264C316.31 244.632 319.148 241.603 321.4 238.163L310.146 230.845ZM304.725 236.65C302.306 238.548 299.663 240.195 296.785 241.591L302.532 253.754C306.265 251.945 309.743 249.782 312.954 247.264L304.725 236.65ZM296.785 241.591C293.856 243.011 290.828 244.15 287.695 245.01L291.102 258.054C295.039 256.973 298.851 255.539 302.532 253.754L296.785 241.591ZM287.618 245.032C284.428 245.948 281.439 246.534 278.642 246.818L279.83 260.276C283.52 259.901 287.305 259.144 291.178 258.033L287.618 245.032ZM278.642 246.818C273.193 247.371 268.241 246.891 263.71 245.471L259.532 258.387C265.948 260.398 272.74 260.996 279.83 260.276L278.642 246.818ZM263.71 245.471C259.044 244.009 254.999 241.794 251.505 238.839L242.726 249.225C247.625 253.368 253.25 256.418 259.532 258.387L263.71 245.471ZM251.562 238.888C248.082 235.877 245.205 232.192 242.938 227.765L230.916 234.064C233.921 239.934 237.837 244.995 242.67 249.177L251.562 238.888ZM242.938 227.765C240.722 223.435 239.35 218.611 238.874 213.222L225.433 214.587C226.05 221.58 227.861 228.096 230.916 234.064L242.938 227.765ZM238.874 213.222C238.504 209.023 238.624 204.891 239.228 200.817L225.881 198.998C225.118 204.148 224.971 209.348 225.433 214.587L238.874 213.222ZM239.23 200.802C239.838 196.636 240.868 192.722 242.307 189.046L229.753 184.248C227.917 188.941 226.63 193.868 225.879 199.013L239.23 200.802ZM242.296 189.073C243.77 185.352 245.642 181.919 247.909 178.758L236.989 170.954C234.051 175.049 231.643 179.476 229.764 184.221L242.296 189.073ZM247.934 178.723C250.172 175.562 252.768 172.793 255.733 170.396L247.346 159.909C243.388 163.108 239.925 166.807 236.964 170.989L247.934 178.723ZM255.733 170.396C258.673 168.02 261.968 166.056 265.645 164.51L260.565 152.045C255.745 154.071 251.329 156.69 247.346 159.909L255.733 170.396ZM265.645 164.51C269.219 163.008 273.168 162.014 277.531 161.571L276.343 148.112C270.761 148.679 265.488 149.976 260.565 152.045L265.645 164.51ZM277.531 161.571C279.184 161.403 280.996 161.297 282.972 161.258L282.881 147.733C280.59 147.778 278.408 147.903 276.343 148.112L277.531 161.571ZM283.109 161.254C284.961 161.179 286.802 161.22 288.632 161.375L289.942 147.896C287.552 147.693 285.153 147.641 282.744 147.737L283.109 161.254ZM288.79 161.387C290.604 161.498 292.36 161.741 294.061 162.113L297.099 148.894C294.708 148.372 292.268 148.036 289.783 147.884L288.79 161.387ZM294.061 162.113C295.694 162.47 297.128 162.946 298.387 163.519L304.094 151.187C301.898 150.189 299.559 149.432 297.099 148.894L294.061 162.113ZM294.494 157.542L294.868 182.533L308.36 182.156L307.987 157.164L294.494 157.542ZM303.418 175.804C300.384 175 297.281 174.575 294.119 174.527L293.741 188.053C295.822 188.085 297.841 188.363 299.811 188.885L303.418 175.804ZM294.244 174.531C291.373 174.434 288.546 174.524 285.767 174.806L286.955 188.264C289.104 188.046 291.323 187.973 293.616 188.05L294.244 174.531ZM285.767 174.806C281.596 175.229 277.641 176.292 273.955 178.039L279.595 190.254C281.772 189.222 284.207 188.543 286.955 188.264L285.767 174.806ZM274.006 178.015C270.355 179.709 267.139 182.001 264.43 184.902L274.226 194.077C275.663 192.538 277.411 191.268 279.544 190.278L274.006 178.015ZM264.386 184.95C261.691 187.891 259.688 191.314 258.353 195.133L271.081 199.459C271.836 197.3 272.906 195.519 274.271 194.029L264.386 184.95ZM258.353 195.133C256.945 199.161 256.515 203.437 256.904 207.853L270.346 206.487C270.101 203.716 270.399 201.41 271.081 199.459L258.353 195.133ZM256.904 207.853C257.157 210.716 257.791 213.486 258.813 216.142L271.411 211.132C270.848 209.668 270.491 208.126 270.346 206.487L256.904 207.853ZM258.827 216.176C259.886 218.885 261.361 221.341 263.271 223.486L273.387 214.404C272.586 213.504 271.916 212.422 271.398 211.097L258.827 216.176ZM263.406 223.633C265.438 225.781 267.846 227.442 270.571 228.604L275.985 216.144C274.902 215.682 274.011 215.058 273.252 214.257L263.406 223.633ZM270.632 228.629C273.743 229.918 277.063 230.286 280.425 229.944L279.237 216.486C277.756 216.636 276.708 216.443 275.924 216.118L270.632 228.629ZM280.425 229.944C282.662 229.717 284.87 229.195 287.039 228.415L282.626 215.689C281.412 216.126 280.286 216.379 279.237 216.486L280.425 229.944ZM287.002 228.428C289.586 227.515 291.948 226.111 293.92 224.132L284.435 214.634C284.083 214.987 283.549 215.363 282.663 215.676L287.002 228.428ZM295.92 219.046L295.733 213.954L282.248 214.628L282.436 219.72L295.92 219.046ZM288.508 207.552L272.919 208.873L273.883 222.352L289.472 221.031L288.508 207.552ZM280.14 215.199L279.199 195.638L265.721 196.464L266.662 216.025L280.14 215.199ZM273.279 202.754C279.672 201.887 286.07 201.063 292.471 200.283L291.013 186.855C284.552 187.643 278.094 188.474 271.641 189.349L273.279 202.754ZM292.516 200.277C298.973 199.446 305.468 198.567 312.003 197.64L310.282 184.246C303.804 185.165 297.366 186.037 290.968 186.86L292.516 200.277ZM304.433 191.746L309.064 235.307L322.482 233.701L317.851 190.141L304.433 191.746ZM397.702 204.823L404.366 205.793L404.368 205.783L404.369 205.774L397.702 204.823ZM394.651 215.485L388.457 212.886L388.443 212.919L388.429 212.952L394.651 215.485ZM389.204 224.949L383.855 220.898L383.852 220.902L389.204 224.949ZM381.569 232.605L377.524 227.244L377.507 227.258L377.49 227.271L381.569 232.605ZM372.041 238.093L374.479 244.368L374.514 244.354L374.548 244.34L372.041 238.093ZM349.476 240.451L348.212 247.11L348.222 247.112L348.233 247.114L349.476 240.451ZM339.251 237.296L336.34 243.435L336.372 243.45L336.404 243.464L339.251 237.296ZM330.311 231.652L325.89 236.818L325.934 236.856L325.978 236.892L330.311 231.652ZM323.209 223.855L317.623 227.719L317.654 227.766L317.686 227.811L323.209 223.855ZM318.24 214.269L311.903 216.672L311.916 216.708L311.93 216.744L318.24 214.269ZM316.221 192.131L322.882 193.12L322.883 193.11L322.885 193.101L316.221 192.131ZM319.206 181.475L313.012 178.876L312.998 178.909L312.984 178.942L319.206 181.475ZM332.147 164.239L328.013 158.948L327.996 158.961L327.978 158.975L332.147 164.239ZM369.868 157.132L368.047 163.667L368.056 163.67L368.065 163.672L369.868 157.132ZM383.839 164.165L379.507 169.406L379.537 169.432L379.569 169.457L383.839 164.165ZM393.493 176.42L387.439 179.483L387.454 179.514L387.47 179.544L393.493 176.42ZM368.088 192.564L361.804 195.109L361.841 195.201L361.88 195.293L368.088 192.564ZM365.34 188.125L360.32 192.709L360.354 192.747L360.389 192.784L365.34 188.125ZM361.156 185.208L358.338 191.39L358.44 191.436L358.545 191.478L361.156 185.208ZM346.556 189.574L341.163 185.58L341.155 185.591L346.556 189.574ZM344.357 194.319L350.883 195.95L350.89 195.924L350.897 195.897L344.357 194.319ZM352.097 213.058L349.149 219.18L349.186 219.197L349.224 219.215L352.097 213.058ZM362.946 212.153L366.42 217.906L366.451 217.886L366.483 217.866L362.946 212.153ZM366.81 208.484L372.341 212.286L372.371 212.242L372.401 212.198L366.81 208.484ZM391.334 193.938C391.636 197.355 391.531 200.662 391.035 203.871L404.369 205.774C405.039 201.44 405.17 197.035 404.776 192.572L391.334 193.938ZM391.038 203.853C390.536 207.038 389.673 210.044 388.457 212.886L400.846 218.085C402.523 214.168 403.694 210.065 404.366 205.793L391.038 203.853ZM388.429 212.952C387.252 215.782 385.73 218.427 383.855 220.898L394.554 229.001C397.134 225.603 399.244 221.938 400.874 218.019L388.429 212.952ZM383.852 220.902C382.042 223.29 379.938 225.401 377.524 227.244L385.614 237.965C389.005 235.375 391.991 232.383 394.557 228.997L383.852 220.902ZM377.49 227.271C375.136 229.093 372.493 230.622 369.534 231.847L374.548 244.34C378.576 242.672 382.285 240.542 385.649 237.939L377.49 227.271ZM369.604 231.819C366.741 232.968 363.607 233.733 360.17 234.082L361.358 247.541C365.963 247.073 370.347 246.026 374.479 244.368L369.604 231.819ZM360.17 234.082C356.857 234.419 353.714 234.311 350.719 233.787L348.233 247.114C352.505 247.862 356.887 247.995 361.358 247.541L360.17 234.082ZM350.74 233.791C347.682 233.246 344.806 232.356 342.097 231.127L336.404 243.464C340.149 245.163 344.09 246.376 348.212 247.11L350.74 233.791ZM342.161 231.157C339.438 229.887 336.936 228.306 334.643 226.411L325.978 236.892C329.144 239.509 332.602 241.692 336.34 243.435L342.161 231.157ZM334.731 226.485C332.457 224.537 330.46 222.345 328.732 219.899L317.686 227.811C320.047 231.153 322.784 234.158 325.89 236.818L334.731 226.485ZM328.796 219.99C327.096 217.496 325.679 214.77 324.551 211.795L311.93 216.744C313.417 220.667 315.313 224.331 317.623 227.719L328.796 219.99ZM324.577 211.866C323.525 208.992 322.844 205.919 322.554 202.627L309.112 203.992C309.502 208.405 310.426 212.639 311.903 216.672L324.577 211.866ZM322.554 202.627C322.27 199.408 322.381 196.243 322.882 193.12L309.559 191.142C308.879 195.39 308.732 199.678 309.112 203.992L322.554 202.627ZM322.885 193.101C323.39 189.889 324.242 186.864 325.429 184.009L312.984 178.942C311.364 182.836 310.225 186.915 309.556 191.161L322.885 193.101ZM325.401 184.075C326.636 181.19 328.181 178.507 330.039 176.015L319.268 168.007C316.757 171.375 314.67 175.002 313.012 178.876L325.401 184.075ZM330.039 176.015C331.878 173.548 333.969 171.382 336.316 169.503L327.978 158.975C324.703 161.598 321.798 164.614 319.268 168.007L330.039 176.015ZM336.281 169.53C338.643 167.664 341.239 166.13 344.089 164.927L338.99 152.47C335.027 154.143 331.361 156.302 328.013 158.948L336.281 169.53ZM344.089 164.927C346.834 163.768 349.82 163.009 353.081 162.678L351.893 149.219C347.371 149.679 343.059 150.752 338.99 152.47L344.089 164.927ZM353.081 162.678C358.651 162.112 363.616 162.48 368.047 163.667L371.69 150.596C365.486 148.933 358.863 148.512 351.893 149.219L353.081 162.678ZM368.065 163.672C372.571 164.867 376.349 166.796 379.507 169.406L388.171 158.924C383.423 154.999 377.886 152.239 371.672 150.591L368.065 163.672ZM379.569 169.457C382.758 172.029 385.39 175.333 387.439 179.483L399.548 173.357C396.709 167.608 392.905 162.742 388.109 158.874L379.569 169.457ZM387.47 179.544C389.515 183.582 390.841 188.343 391.334 193.938L404.776 192.572C404.154 185.525 402.439 179.064 399.517 173.296L387.47 179.544ZM376.127 197.186C375.902 194.634 375.294 192.173 374.296 189.835L361.88 195.293C362.311 196.303 362.583 197.379 362.686 198.551L376.127 197.186ZM374.371 190.018C373.416 187.583 372.07 185.369 370.291 183.466L360.389 192.784C360.923 193.355 361.409 194.1 361.804 195.109L374.371 190.018ZM370.36 183.542C368.522 181.513 366.3 179.971 363.768 178.939L358.545 191.478C359.271 191.774 359.838 192.177 360.32 192.709L370.36 183.542ZM363.975 179.027C361.175 177.773 358.185 177.41 355.194 177.714L356.382 191.172C357.369 191.072 357.958 191.219 358.338 191.39L363.975 179.027ZM355.194 177.714C352.342 178.004 349.592 178.807 347.092 180.271L353.783 191.93C354.353 191.597 355.17 191.296 356.382 191.172L355.194 177.714ZM347.092 180.271C344.766 181.632 342.773 183.412 341.163 185.58L351.949 193.569C352.444 192.902 353.039 192.366 353.783 191.93L347.092 180.271ZM341.155 185.591C339.563 187.742 338.469 190.157 337.817 192.74L350.897 195.897C351.15 194.894 351.521 194.146 351.956 193.558L341.155 185.591ZM337.831 192.688C337.165 195.239 336.972 197.852 337.204 200.484L350.645 199.118C350.541 197.94 350.636 196.898 350.883 195.95L337.831 192.688ZM337.204 200.484C337.422 202.952 337.991 205.356 338.885 207.682L351.483 202.672C351.02 201.467 350.749 200.287 350.645 199.118L337.204 200.484ZM338.885 207.682C339.823 210.118 341.125 212.345 342.807 214.313L353.103 205.437C352.449 204.672 351.905 203.767 351.483 202.672L338.885 207.682ZM342.807 214.313C344.569 216.375 346.694 218.016 349.149 219.18L355.045 206.937C354.313 206.59 353.677 206.108 353.103 205.437L342.807 214.313ZM349.224 219.215C352.074 220.523 355.128 220.916 358.195 220.604L357.007 207.146C356.009 207.247 355.394 207.096 354.97 206.902L349.224 219.215ZM358.195 220.604C361.1 220.309 363.895 219.458 366.42 217.906L359.471 206.401C358.934 206.731 358.166 207.028 357.007 207.146L358.195 220.604ZM366.483 217.866C368.799 216.407 370.78 214.546 372.341 212.286L361.279 204.683C360.828 205.335 360.233 205.92 359.409 206.44L366.483 217.866ZM372.401 212.198C373.871 209.998 374.909 207.583 375.538 205.009L362.434 201.952C362.165 203.05 361.753 203.972 361.219 204.771L372.401 212.198ZM375.538 205.009C376.166 202.437 376.36 199.819 376.127 197.186L362.686 198.551C362.79 199.728 362.703 200.851 362.434 201.952L375.538 205.009ZM482.408 196.22L489.072 197.19L489.074 197.181L489.075 197.171L482.408 196.22ZM479.357 206.882L473.163 204.283L473.149 204.316L473.135 204.349L479.357 206.882ZM473.91 216.347L468.561 212.295L468.558 212.299L473.91 216.347ZM466.275 224.002L462.23 218.642L462.213 218.655L462.196 218.668L466.275 224.002ZM456.747 229.491L459.185 235.765L459.22 235.751L459.254 235.737L456.747 229.491ZM434.182 231.848L432.918 238.508L432.928 238.509L432.939 238.511L434.182 231.848ZM423.957 228.693L421.046 234.832L421.078 234.847L421.11 234.862L423.957 228.693ZM415.017 223.049L410.596 228.215L410.64 228.253L410.684 228.29L415.017 223.049ZM407.915 215.252L402.329 219.117L402.36 219.163L402.392 219.208L407.915 215.252ZM402.946 205.666L396.609 208.069L396.622 208.105L396.636 208.141L402.946 205.666ZM400.927 183.528L407.588 184.517L407.589 184.507L407.591 184.498L400.927 183.528ZM403.912 172.872L397.718 170.273L397.704 170.306L397.69 170.339L403.912 172.872ZM416.853 155.636L412.719 150.345L412.702 150.359L412.684 150.373L416.853 155.636ZM454.574 148.529L452.753 155.065L452.762 155.067L452.771 155.069L454.574 148.529ZM468.545 155.562L464.213 160.803L464.243 160.829L464.275 160.854L468.545 155.562ZM478.199 167.817L472.145 170.88L472.16 170.911L472.176 170.942L478.199 167.817ZM452.794 183.961L446.51 186.506L446.547 186.599L446.586 186.69L452.794 183.961ZM450.046 179.522L445.026 184.106L445.06 184.144L445.096 184.181L450.046 179.522ZM445.862 176.606L443.044 182.787L443.146 182.833L443.251 182.875L445.862 176.606ZM431.262 180.971L425.869 176.977L425.861 176.988L431.262 180.971ZM429.063 185.716L435.589 187.347L435.596 187.321L435.603 187.295L429.063 185.716ZM436.803 204.455L433.855 210.577L433.892 210.595L433.93 210.612L436.803 204.455ZM447.652 203.55L451.126 209.303L451.157 209.283L451.189 209.264L447.652 203.55ZM451.516 199.882L457.047 203.683L457.077 203.639L457.107 203.595L451.516 199.882ZM476.04 185.335C476.342 188.752 476.237 192.059 475.741 195.269L489.075 197.171C489.745 192.837 489.876 188.432 489.482 183.97L476.04 185.335ZM475.744 195.25C475.242 198.436 474.379 201.441 473.163 204.283L485.552 209.482C487.229 205.565 488.4 201.462 489.072 197.19L475.744 195.25ZM473.135 204.349C471.958 207.179 470.436 209.824 468.561 212.295L479.26 220.398C481.84 217 483.95 213.335 485.58 209.416L473.135 204.349ZM468.558 212.299C466.748 214.687 464.644 216.798 462.23 218.642L470.32 229.362C473.711 226.772 476.697 223.78 479.263 220.394L468.558 212.299ZM462.196 218.668C459.842 220.49 457.199 222.019 454.24 223.244L459.254 235.737C463.282 234.069 466.991 231.939 470.355 229.336L462.196 218.668ZM454.31 223.216C451.447 224.365 448.313 225.13 444.876 225.479L446.064 238.938C450.669 238.47 455.053 237.424 459.185 235.765L454.31 223.216ZM444.876 225.479C441.563 225.816 438.42 225.708 435.425 225.184L432.939 238.511C437.211 239.259 441.593 239.392 446.064 238.938L444.876 225.479ZM435.446 225.188C432.388 224.643 429.512 223.753 426.803 222.524L421.11 234.862C424.855 236.56 428.796 237.773 432.918 238.508L435.446 225.188ZM426.867 222.554C424.144 221.284 421.642 219.704 419.349 217.808L410.684 228.29C413.85 230.906 417.308 233.089 421.046 234.832L426.867 222.554ZM419.437 217.882C417.163 215.934 415.166 213.742 413.438 211.296L402.392 219.208C404.753 222.55 407.49 225.555 410.596 228.215L419.437 217.882ZM413.502 211.387C411.802 208.893 410.385 206.167 409.257 203.192L396.636 208.141C398.123 212.064 400.019 215.728 402.329 219.117L413.502 211.387ZM409.283 203.263C408.231 200.389 407.551 197.317 407.26 194.024L393.818 195.389C394.208 199.802 395.132 204.036 396.609 208.069L409.283 203.263ZM407.26 194.024C406.976 190.805 407.087 187.64 407.588 184.517L394.266 182.539C393.585 186.787 393.438 191.075 393.818 195.389L407.26 194.024ZM407.591 184.498C408.096 181.287 408.948 178.261 410.135 175.406L397.69 170.339C396.07 174.234 394.931 178.312 394.262 182.558L407.591 184.498ZM410.107 175.472C411.342 172.587 412.887 169.904 414.745 167.412L403.974 159.404C401.463 162.772 399.376 166.399 397.718 170.273L410.107 175.472ZM414.745 167.412C416.584 164.945 418.675 162.779 421.022 160.9L412.684 150.373C409.409 152.995 406.504 156.011 403.974 159.404L414.745 167.412ZM420.987 160.927C423.349 159.061 425.945 157.527 428.795 156.324L423.696 143.867C419.733 145.54 416.067 147.699 412.719 150.345L420.987 160.927ZM428.795 156.324C431.54 155.166 434.526 154.406 437.787 154.075L436.599 140.617C432.077 141.076 427.765 142.15 423.696 143.867L428.795 156.324ZM437.787 154.075C443.357 153.509 448.322 153.877 452.753 155.065L456.396 141.993C450.192 140.33 443.569 139.909 436.599 140.617L437.787 154.075ZM452.771 155.069C457.277 156.264 461.055 158.193 464.213 160.803L472.877 150.322C468.129 146.396 462.592 143.636 456.378 141.989L452.771 155.069ZM464.275 160.854C467.464 163.426 470.096 166.73 472.145 170.88L484.254 164.755C481.415 159.005 477.611 154.139 472.815 150.271L464.275 160.854ZM472.176 170.942C474.221 174.979 475.547 179.741 476.04 185.335L489.482 183.97C488.86 176.922 487.145 170.461 484.223 164.693L472.176 170.942ZM460.833 188.583C460.608 186.031 460 183.571 459.002 181.232L446.586 186.69C447.017 187.7 447.289 188.777 447.392 189.948L460.833 188.583ZM459.077 181.416C458.122 178.98 456.776 176.766 454.997 174.863L445.096 184.181C445.629 184.752 446.115 185.497 446.51 186.506L459.077 181.416ZM455.066 174.939C453.228 172.91 451.006 171.369 448.474 170.336L443.251 182.875C443.977 183.172 444.544 183.574 445.026 184.106L455.066 174.939ZM448.681 170.424C445.881 169.17 442.891 168.807 439.9 169.111L441.088 182.569C442.075 182.469 442.664 182.617 443.044 182.787L448.681 170.424ZM439.9 169.111C437.048 169.401 434.298 170.205 431.798 171.668L438.489 183.327C439.059 182.994 439.876 182.693 441.088 182.569L439.9 169.111ZM431.798 171.668C429.472 173.029 427.479 174.809 425.869 176.977L436.655 184.966C437.15 184.299 437.745 183.763 438.489 183.327L431.798 171.668ZM425.861 176.988C424.269 179.139 423.175 181.554 422.523 184.137L435.603 187.295C435.856 186.291 436.227 185.543 436.662 184.955L425.861 176.988ZM422.537 184.085C421.871 186.636 421.678 189.249 421.91 191.881L435.351 190.515C435.247 189.337 435.342 188.295 435.589 187.347L422.537 184.085ZM421.91 191.881C422.128 194.349 422.697 196.753 423.592 199.079L436.189 194.069C435.726 192.864 435.455 191.684 435.351 190.515L421.91 191.881ZM423.592 199.079C424.529 201.515 425.831 203.742 427.513 205.711L437.809 196.834C437.156 196.069 436.611 195.164 436.189 194.069L423.592 199.079ZM427.513 205.711C429.275 207.773 431.4 209.413 433.855 210.577L439.751 198.334C439.019 197.987 438.383 197.505 437.809 196.834L427.513 205.711ZM433.93 210.612C436.78 211.92 439.834 212.313 442.901 212.002L441.713 198.543C440.715 198.645 440.1 198.493 439.676 198.299L433.93 210.612ZM442.901 212.002C445.806 211.706 448.601 210.856 451.126 209.303L444.177 197.798C443.64 198.128 442.872 198.426 441.713 198.543L442.901 212.002ZM451.189 209.264C453.505 207.804 455.486 205.943 457.047 203.683L445.985 196.08C445.534 196.733 444.939 197.317 444.115 197.837L451.189 209.264ZM457.107 203.595C458.577 201.395 459.615 198.98 460.244 196.406L447.14 193.349C446.871 194.447 446.459 195.369 445.925 196.168L457.107 203.595ZM460.244 196.406C460.872 193.834 461.066 191.216 460.833 188.583L447.392 189.948C447.496 191.125 447.409 192.248 447.14 193.349L460.244 196.406ZM559.398 187.68L565.978 189.089L565.98 189.081L565.982 189.072L559.398 187.68ZM553.993 201.333L548.234 197.884L548.228 197.896L553.993 201.333ZM532.878 220.121L535.807 226.175L535.832 226.163L535.857 226.15L532.878 220.121ZM518.564 225.506L520.21 232.043L520.233 232.037L520.255 232.031L518.564 225.506ZM496.804 228.83L496.95 235.589L497.024 235.587L497.099 235.582L496.804 228.83ZM490.791 228.916L484.06 229.458L484.476 235.649L490.671 235.68L490.791 228.916ZM484.914 141.582L482.311 135.376L477.858 137.301L478.183 142.124L484.914 141.582ZM499.292 136.911L500.687 143.51L500.711 143.504L500.735 143.499L499.292 136.911ZM555.585 154.127L549.593 157.312L549.604 157.334L549.615 157.356L555.585 154.127ZM534.057 177.87L527.326 178.428L527.331 178.49L527.336 178.552L534.057 177.87ZM532.682 171.195L526.286 173.429L526.306 173.489L526.327 173.549L532.682 171.195ZM529.519 165.75L524.406 170.229L524.47 170.303L524.536 170.375L529.519 165.75ZM524.493 162.198L521.797 168.433L521.851 168.456L521.906 168.478L524.493 162.198ZM517.534 161.202L517.161 154.454L510.634 154.901L510.789 161.45L517.534 161.202ZM518.494 201.728L511.749 201.976L511.947 210.356L520.078 208.282L518.494 201.728ZM525.34 198.477L529.356 203.86L529.396 203.83L529.435 203.799L525.34 198.477ZM530.358 193.054L524.739 189.383L524.734 189.391L524.729 189.399L530.358 193.054ZM533.358 186.262L526.839 184.604L526.83 184.638L526.821 184.673L533.358 186.262ZM534.137 178.779L540.874 178.329L540.868 178.212L540.858 178.096L534.137 178.779ZM553.561 171.696C554.046 177.185 553.762 182.029 552.814 186.288L565.982 189.072C567.283 183.23 567.588 176.963 567.003 170.33L553.561 171.696ZM552.817 186.271C551.839 190.613 550.299 194.467 548.234 197.884L559.752 204.782C562.636 200.009 564.699 194.761 565.978 189.089L552.817 186.271ZM548.228 197.896C546.172 201.313 543.624 204.337 540.562 206.984L549.298 217.18C553.45 213.591 556.945 209.448 559.759 204.771L548.228 197.896ZM540.562 206.984C537.396 209.721 533.849 212.092 529.9 214.091L535.857 226.15C540.761 223.668 545.249 220.68 549.298 217.18L540.562 206.984ZM529.95 214.066C525.944 216.052 521.59 217.695 516.873 218.98L520.255 232.031C525.763 230.53 530.952 228.583 535.807 226.175L529.95 214.066ZM516.918 218.968C512.206 220.218 507.298 221.105 502.189 221.624L503.377 235.083C509.164 234.495 514.777 233.484 520.21 232.043L516.918 218.968ZM502.189 221.624C500.252 221.821 498.358 221.972 496.509 222.077L497.099 235.582C499.156 235.465 501.249 235.299 503.377 235.083L502.189 221.624ZM496.658 222.07C494.794 222.134 492.878 222.162 490.911 222.152L490.671 235.68C492.807 235.69 494.9 235.66 496.95 235.589L496.658 222.07ZM497.523 228.374L491.646 141.04L478.183 142.124L484.06 229.458L497.523 228.374ZM487.518 147.787C491.746 145.96 496.133 144.533 500.687 143.51L497.897 130.312C492.526 131.52 487.328 133.207 482.311 135.376L487.518 147.787ZM500.735 143.499C505.464 142.399 510.167 141.613 514.847 141.138L513.659 127.679C508.393 128.214 503.123 129.097 497.848 130.323L500.735 143.499ZM514.847 141.138C520.351 140.579 525.332 140.907 529.849 142.034L533.265 128.904C527.076 127.361 520.522 126.983 513.659 127.679L514.847 141.138ZM529.849 142.034C534.382 143.164 538.251 145.017 541.549 147.548L549.839 136.768C544.994 133.049 539.439 130.443 533.265 128.904L529.849 142.034ZM541.549 147.548C544.803 150.045 547.489 153.264 549.593 157.312L561.577 150.941C558.636 145.28 554.728 140.52 549.839 136.768L541.549 147.548ZM549.615 157.356C551.701 161.297 553.062 166.034 553.561 171.696L567.003 170.33C566.372 163.177 564.601 156.656 561.555 150.898L549.615 157.356ZM540.787 177.312C540.583 174.384 540.006 171.552 539.037 168.841L526.327 173.549C526.865 175.053 527.204 176.672 527.326 178.428L540.787 177.312ZM539.079 168.961C538.093 166.028 536.581 163.382 534.501 161.125L524.536 170.375C525.255 171.155 525.852 172.138 526.286 173.429L539.079 168.961ZM534.632 161.272C532.561 158.887 530.01 157.1 527.08 155.919L521.906 168.478C522.958 168.902 523.757 169.483 524.406 170.229L534.632 161.272ZM527.19 155.964C524.042 154.629 520.633 154.216 517.161 154.454L517.908 167.95C519.726 167.825 520.957 168.077 521.797 168.433L527.19 155.964ZM510.789 161.45L511.749 201.976L525.239 201.48L524.279 160.954L510.789 161.45ZM520.078 208.282C523.467 207.417 526.585 205.953 529.356 203.86L521.324 193.095C520.086 194.03 518.641 194.733 516.91 195.175L520.078 208.282ZM529.435 203.799C532.016 201.79 534.214 199.423 535.988 196.708L524.729 189.399C523.813 190.801 522.664 192.051 521.245 193.156L529.435 203.799ZM535.977 196.724C537.779 193.984 539.091 191.017 539.895 187.852L526.821 184.673C526.395 186.35 525.707 187.911 524.739 189.383L535.977 196.724ZM539.877 187.92C540.713 184.769 541.048 181.563 540.874 178.329L527.4 179.229C527.497 181.035 527.313 182.818 526.839 184.604L539.877 187.92ZM540.858 178.096L540.778 177.187L527.336 178.552L527.416 179.462L540.858 178.096Z" fill="#158CFB" mask="url(#path-1-outside-1_1_747)"/>
</g>
<path d="M193.902 237.01C193.303 238.853 190.697 238.853 190.098 237.01L186.612 226.281C186.344 225.457 185.576 224.899 184.71 224.899H173.428C171.49 224.899 170.685 222.419 172.252 221.281L181.379 214.649C182.08 214.14 182.374 213.237 182.106 212.413L178.62 201.684C178.021 199.841 180.13 198.309 181.697 199.448L190.824 206.079C191.525 206.588 192.475 206.588 193.176 206.079L202.303 199.448C203.87 198.309 205.979 199.841 205.38 201.684L201.894 212.413C201.626 213.237 201.92 214.14 202.621 214.649L211.748 221.281C213.315 222.419 212.51 224.899 210.572 224.899H199.29C198.424 224.899 197.656 225.457 197.388 226.281L193.902 237.01Z" fill="url(#paint1_linear_1_747)"/>
<path d="M596.902 183.01C596.303 184.853 593.697 184.853 593.098 183.01L589.612 172.281C589.344 171.457 588.576 170.899 587.71 170.899H576.428C574.49 170.899 573.685 168.419 575.252 167.281L584.379 160.649C585.08 160.14 585.374 159.237 585.106 158.413L581.62 147.684C581.021 145.841 583.13 144.309 584.697 145.448L593.824 152.079C594.525 152.588 595.475 152.588 596.176 152.079L605.303 145.448C606.87 144.309 608.979 145.841 608.38 147.684L604.894 158.413C604.626 159.237 604.92 160.14 605.621 160.649L614.748 167.281C616.315 168.419 615.51 170.899 613.572 170.899H602.29C601.424 170.899 600.656 171.457 600.388 172.281L596.902 183.01Z" fill="url(#paint2_linear_1_747)"/>
<path d="M210.718 265.521C210.488 267.445 207.931 267.951 206.986 266.26L204.489 261.793C204.066 261.036 203.204 260.638 202.354 260.807L197.334 261.801C195.434 262.178 194.162 259.902 195.478 258.48L198.955 254.725C199.544 254.089 199.656 253.147 199.233 252.39L196.736 247.923C195.791 246.232 197.562 244.319 199.321 245.132L203.967 247.278C204.753 247.641 205.684 247.457 206.273 246.821L209.75 243.066C211.066 241.644 213.433 242.737 213.204 244.661L212.598 249.743C212.495 250.603 212.959 251.432 213.745 251.795L218.391 253.942C220.15 254.754 219.842 257.343 217.941 257.719L212.921 258.714C212.071 258.882 211.426 259.579 211.323 260.439L210.718 265.521Z" fill="url(#paint3_linear_1_747)"/>
<path d="M273.834 192.469C274.996 194.019 273.496 196.151 271.645 195.58L241.697 186.351C240.869 186.096 239.971 186.403 239.472 187.112L221.441 212.741C220.326 214.326 217.835 213.558 217.805 211.621L217.328 180.287C217.315 179.421 216.746 178.662 215.918 178.406L185.97 169.177C184.119 168.607 184.079 166 185.912 165.374L215.565 155.237C216.385 154.957 216.931 154.181 216.918 153.314L216.441 121.981C216.411 120.044 218.878 119.2 220.041 120.75L238.844 145.819C239.364 146.513 240.271 146.792 241.091 146.512L270.743 136.376C272.577 135.749 274.141 137.834 273.026 139.419L254.994 165.049C254.496 165.757 254.51 166.707 255.03 167.4L273.834 192.469Z" fill="url(#paint4_linear_1_747)"/>
<path d="M613.664 88.5418C615.589 88.7597 616.11 91.3138 614.425 92.2691L595.645 102.913C594.892 103.34 594.499 104.204 594.672 105.053L598.991 126.202C599.379 128.1 597.111 129.386 595.682 128.078L579.756 113.506C579.117 112.922 578.174 112.815 577.42 113.242L558.64 123.886C556.955 124.841 555.032 123.081 555.834 121.318L564.771 101.669C565.129 100.88 564.939 99.9498 564.3 99.365L548.374 84.7937C546.945 83.4858 548.024 81.1129 549.949 81.3308L571.398 83.7584C572.259 83.8558 573.085 83.3878 573.444 82.5991L582.381 62.9501C583.183 61.1865 585.773 61.4797 586.161 63.3779L590.48 84.5272C590.653 85.3761 591.354 86.0169 592.215 86.1143L613.664 88.5418Z" fill="url(#paint5_linear_1_747)"/>
<defs>
<filter id="filter0_di_1_747" x="218.729" y="118.142" width="360.522" height="151.629" filterUnits="userSpaceOnUse" color-interpolation-filters="sRGB">
<feFlood flood-opacity="0" result="BackgroundImageFix"/>
<feColorMatrix in="SourceAlpha" type="matrix" values="0 0 0 0 0 0 0 0 0 0 0 0 0 0 0 0 0 0 127 0" result="hardAlpha"/>
<feOffset dx="2.76055"/>
<feGaussianBlur stdDeviation="4.60092"/>
<feComposite in2="hardAlpha" operator="out"/>
<feColorMatrix type="matrix" values="0 0 0 0 0.129167 0 0 0 0 0.129167 0 0 0 0 0.129167 0 0 0 0.53 0"/>
<feBlend mode="normal" in2="BackgroundImageFix" result="effect1_dropShadow_1_747"/>
<feBlend mode="normal" in="SourceGraphic" in2="effect1_dropShadow_1_747" result="shape"/>
<feColorMatrix in="SourceAlpha" type="matrix" values="0 0 0 0 0 0 0 0 0 0 0 0 0 0 0 0 0 0 127 0" result="hardAlpha"/>
<feOffset dy="4"/>
<feGaussianBlur stdDeviation="20"/>
<feComposite in2="hardAlpha" operator="arithmetic" k2="-1" k3="1"/>
<feColorMatrix type="matrix" values="0 0 0 0 1 0 0 0 0 1 0 0 0 0 1 0 0 0 1 0"/>
<feBlend mode="normal" in2="shape" result="effect2_innerShadow_1_747"/>
</filter>
<linearGradient id="paint0_linear_1_747" x1="385.5" y1="115.864" x2="410.789" y2="295.964" gradientUnits="userSpaceOnUse">
<stop stop-color="#C9F6FF"/>
<stop offset="0.447917" stop-color="#67C5FA"/>
<stop offset="1" stop-color="#1F93FF"/>
</linearGradient>
<linearGradient id="paint1_linear_1_747" x1="197.41" y1="250.758" x2="178.964" y2="190.832" gradientUnits="userSpaceOnUse">
<stop stop-color="#9BDCFC"/>
<stop offset="0.770833" stop-color="#64B4FF"/>
</linearGradient>
<linearGradient id="paint2_linear_1_747" x1="600.41" y1="196.758" x2="581.964" y2="136.832" gradientUnits="userSpaceOnUse">
<stop stop-color="#9BDCFC"/>
<stop offset="0.770833" stop-color="#64B4FF"/>
</linearGradient>
<linearGradient id="paint3_linear_1_747" x1="214.598" y1="276.142" x2="194.563" y2="238.953" gradientUnits="userSpaceOnUse">
<stop stop-color="#9BDCFC"/>
<stop offset="0.770833" stop-color="#64B4FF"/>
</linearGradient>
<linearGradient id="paint4_linear_1_747" x1="297.256" y1="197.636" x2="174.325" y2="157.648" gradientUnits="userSpaceOnUse">
<stop stop-color="#9BDCFC"/>
<stop offset="0.770833" stop-color="#64B4FF"/>
</linearGradient>
<linearGradient id="paint5_linear_1_747" x1="630.06" y1="78.6014" x2="545.023" y2="125.065" gradientUnits="userSpaceOnUse">
<stop stop-color="#9BDCFC"/>
<stop offset="0.770833" stop-color="#64B4FF"/>
</linearGradient>
</defs>
</svg>
