<svg width="787" height="375" viewBox="0 0 787 375" fill="none" xmlns="http://www.w3.org/2000/svg">
<g filter="url(#filter0_d_1_755)">
<mask id="path-1-outside-1_1_755" maskUnits="userSpaceOnUse" x="262.317" y="99.6201" width="260.471" height="136.033" fill="black">
<rect fill="white" x="262.317" y="99.6201" width="260.471" height="136.033"/>
<path d="M352.117 195.152C352.434 198.746 352.037 201.909 350.926 204.643C349.858 207.372 348.302 209.758 346.257 211.8C344.213 213.843 341.793 215.595 338.999 217.058C336.245 218.474 333.34 219.664 330.284 220.63C327.228 221.596 324.131 222.347 320.994 222.884C317.9 223.417 314.991 223.821 312.267 224.098C309.586 224.37 306.787 224.545 303.871 224.623C301.002 224.74 298.12 224.705 295.224 224.518C292.328 224.332 289.462 223.99 286.626 223.492C283.786 222.95 281.08 222.198 278.508 221.236L270.995 137.607C273.329 136.365 275.823 135.216 278.479 134.16C281.13 133.061 283.838 132.109 286.603 131.304C289.407 130.451 292.203 129.752 294.99 129.207C297.774 128.618 300.485 128.19 303.123 127.922C306.193 127.611 309.301 127.491 312.449 127.565C315.64 127.634 318.724 127.976 321.701 128.591C324.679 129.206 327.486 130.122 330.124 131.339C332.758 132.513 335.098 134.066 337.145 135.999C339.235 137.927 340.923 140.246 342.209 142.954C343.538 145.659 344.365 148.851 344.69 152.531C344.904 154.955 344.759 157.263 344.254 159.455C343.75 161.646 342.923 163.652 341.775 165.473C340.627 167.293 339.177 168.903 337.425 170.304C335.668 171.662 333.648 172.741 331.362 173.541C334.238 173.991 336.885 174.815 339.302 176.011C341.764 177.202 343.884 178.734 345.663 180.606C347.486 182.474 348.942 184.642 350.033 187.108C351.166 189.57 351.861 192.252 352.117 195.152ZM315.901 161.483C315.79 160.227 315.437 159.193 314.842 158.38C314.243 157.523 313.529 156.853 312.701 156.369C311.916 155.881 311.059 155.553 310.128 155.386C309.24 155.214 308.45 155.163 307.758 155.233C306.894 155.321 306.062 155.536 305.263 155.88C304.465 156.223 303.691 156.607 302.944 157.033L303.827 171.489C304.822 171.388 306.046 171.176 307.501 170.854C308.956 170.531 310.329 170.02 311.62 169.321C312.95 168.575 314.041 167.59 314.893 166.368C315.741 165.103 316.077 163.474 315.901 161.483ZM308.56 183.588C307.306 183.716 306.107 183.969 304.962 184.347L306.01 199.18C306.67 199.244 307.308 199.31 307.925 199.378C308.581 199.399 309.212 199.379 309.817 199.317C310.725 199.225 311.712 199.037 312.778 198.754C313.84 198.428 314.822 197.935 315.723 197.276C316.621 196.573 317.329 195.693 317.846 194.636C318.407 193.574 318.614 192.221 318.469 190.576C318.324 188.931 317.881 187.621 317.141 186.648C316.444 185.671 315.616 184.947 314.659 184.476C313.697 183.962 312.668 183.674 311.572 183.61C310.472 183.503 309.468 183.496 308.56 183.588ZM438.955 204.024L407.151 211.447L401.964 197.166L387.176 198.668L385.229 213.674L351.864 213.786L370.042 124.664L405.944 119.183L438.955 204.024ZM397.875 177.531L390.951 155.433L388.146 178.52L397.875 177.531ZM509.743 150.445C510.278 156.506 509.984 162.061 508.859 167.112C507.73 172.119 505.929 176.67 503.454 180.765C501.02 184.813 497.998 188.395 494.391 191.514C490.783 194.632 486.766 197.312 482.34 199.552C477.909 201.749 473.138 203.544 468.025 204.937C462.952 206.282 457.692 207.232 452.244 207.785C450.212 207.991 448.219 208.15 446.265 208.261C444.308 208.329 442.304 208.358 440.252 208.348L434.376 121.013C438.998 119.015 443.791 117.458 448.753 116.343C453.754 115.179 458.742 114.345 463.714 113.84C469.897 113.212 475.666 113.566 481.019 114.9C486.372 116.235 491.084 118.465 495.155 121.589C499.227 124.714 502.524 128.704 505.046 133.558C507.612 138.408 509.178 144.037 509.743 150.445ZM483.518 157.301C483.355 154.959 482.897 152.734 482.144 150.627C481.434 148.515 480.379 146.7 478.98 145.182C477.62 143.617 475.945 142.433 473.955 141.63C471.96 140.784 469.641 140.452 466.995 140.633L467.955 181.16C470.515 180.507 472.797 179.423 474.801 177.909C476.801 176.352 478.474 174.544 479.819 172.485C481.204 170.379 482.204 168.115 482.819 165.694C483.474 163.225 483.733 160.73 483.598 158.211L483.518 157.301Z"/>
</mask>
<path d="M352.117 195.152C352.434 198.746 352.037 201.909 350.926 204.643C349.858 207.372 348.302 209.758 346.257 211.8C344.213 213.843 341.793 215.595 338.999 217.058C336.245 218.474 333.34 219.664 330.284 220.63C327.228 221.596 324.131 222.347 320.994 222.884C317.9 223.417 314.991 223.821 312.267 224.098C309.586 224.37 306.787 224.545 303.871 224.623C301.002 224.74 298.12 224.705 295.224 224.518C292.328 224.332 289.462 223.99 286.626 223.492C283.786 222.95 281.08 222.198 278.508 221.236L270.995 137.607C273.329 136.365 275.823 135.216 278.479 134.16C281.13 133.061 283.838 132.109 286.603 131.304C289.407 130.451 292.203 129.752 294.99 129.207C297.774 128.618 300.485 128.19 303.123 127.922C306.193 127.611 309.301 127.491 312.449 127.565C315.64 127.634 318.724 127.976 321.701 128.591C324.679 129.206 327.486 130.122 330.124 131.339C332.758 132.513 335.098 134.066 337.145 135.999C339.235 137.927 340.923 140.246 342.209 142.954C343.538 145.659 344.365 148.851 344.69 152.531C344.904 154.955 344.759 157.263 344.254 159.455C343.75 161.646 342.923 163.652 341.775 165.473C340.627 167.293 339.177 168.903 337.425 170.304C335.668 171.662 333.648 172.741 331.362 173.541C334.238 173.991 336.885 174.815 339.302 176.011C341.764 177.202 343.884 178.734 345.663 180.606C347.486 182.474 348.942 184.642 350.033 187.108C351.166 189.57 351.861 192.252 352.117 195.152ZM315.901 161.483C315.79 160.227 315.437 159.193 314.842 158.38C314.243 157.523 313.529 156.853 312.701 156.369C311.916 155.881 311.059 155.553 310.128 155.386C309.24 155.214 308.45 155.163 307.758 155.233C306.894 155.321 306.062 155.536 305.263 155.88C304.465 156.223 303.691 156.607 302.944 157.033L303.827 171.489C304.822 171.388 306.046 171.176 307.501 170.854C308.956 170.531 310.329 170.02 311.62 169.321C312.95 168.575 314.041 167.59 314.893 166.368C315.741 165.103 316.077 163.474 315.901 161.483ZM308.56 183.588C307.306 183.716 306.107 183.969 304.962 184.347L306.01 199.18C306.67 199.244 307.308 199.31 307.925 199.378C308.581 199.399 309.212 199.379 309.817 199.317C310.725 199.225 311.712 199.037 312.778 198.754C313.84 198.428 314.822 197.935 315.723 197.276C316.621 196.573 317.329 195.693 317.846 194.636C318.407 193.574 318.614 192.221 318.469 190.576C318.324 188.931 317.881 187.621 317.141 186.648C316.444 185.671 315.616 184.947 314.659 184.476C313.697 183.962 312.668 183.674 311.572 183.61C310.472 183.503 309.468 183.496 308.56 183.588ZM438.955 204.024L407.151 211.447L401.964 197.166L387.176 198.668L385.229 213.674L351.864 213.786L370.042 124.664L405.944 119.183L438.955 204.024ZM397.875 177.531L390.951 155.433L388.146 178.52L397.875 177.531ZM509.743 150.445C510.278 156.506 509.984 162.061 508.859 167.112C507.73 172.119 505.929 176.67 503.454 180.765C501.02 184.813 497.998 188.395 494.391 191.514C490.783 194.632 486.766 197.312 482.34 199.552C477.909 201.749 473.138 203.544 468.025 204.937C462.952 206.282 457.692 207.232 452.244 207.785C450.212 207.991 448.219 208.15 446.265 208.261C444.308 208.329 442.304 208.358 440.252 208.348L434.376 121.013C438.998 119.015 443.791 117.458 448.753 116.343C453.754 115.179 458.742 114.345 463.714 113.84C469.897 113.212 475.666 113.566 481.019 114.9C486.372 116.235 491.084 118.465 495.155 121.589C499.227 124.714 502.524 128.704 505.046 133.558C507.612 138.408 509.178 144.037 509.743 150.445ZM483.518 157.301C483.355 154.959 482.897 152.734 482.144 150.627C481.434 148.515 480.379 146.7 478.98 145.182C477.62 143.617 475.945 142.433 473.955 141.63C471.96 140.784 469.641 140.452 466.995 140.633L467.955 181.16C470.515 180.507 472.797 179.423 474.801 177.909C476.801 176.352 478.474 174.544 479.819 172.485C481.204 170.379 482.204 168.115 482.819 165.694C483.474 163.225 483.733 160.73 483.598 158.211L483.518 157.301Z" fill="url(#paint0_linear_1_755)"/>
<path d="M350.926 204.643L344.683 202.16L344.666 202.202L344.649 202.244L350.926 204.643ZM338.999 217.058L342.015 223.069L342.039 223.057L342.062 223.045L338.999 217.058ZM320.994 222.884L319.942 216.217L319.936 216.218L320.994 222.884ZM303.871 224.623L303.779 217.862L303.732 217.863L303.685 217.865L303.871 224.623ZM286.626 223.492L285.283 230.137L285.33 230.146L285.378 230.154L286.626 223.492ZM278.508 221.236L271.789 221.929L272.164 226.113L276.078 227.577L278.508 221.236ZM270.995 137.607L267.893 131.641L263.87 133.782L264.276 138.3L270.995 137.607ZM278.479 134.16L280.896 140.443L280.942 140.424L280.988 140.406L278.479 134.16ZM286.603 131.304L288.407 137.797L288.446 137.786L288.484 137.774L286.603 131.304ZM294.99 129.207L296.2 135.845L296.25 135.835L296.301 135.824L294.99 129.207ZM312.449 127.565L312.205 134.327L312.216 134.327L312.449 127.565ZM330.124 131.339L327.238 137.49L327.277 137.508L327.317 137.525L330.124 131.339ZM337.145 135.999L332.485 140.951L332.513 140.977L332.541 141.003L337.145 135.999ZM342.209 142.954L336.11 145.925L336.129 145.966L336.149 146.007L342.209 142.954ZM337.425 170.304L341.501 175.64L341.546 175.606L341.59 175.571L337.425 170.304ZM331.362 173.541L329.212 167.158L330.237 180.224L331.362 173.541ZM339.302 176.011L336.254 182.084L336.28 182.096L336.305 182.108L339.302 176.011ZM345.663 180.606L340.75 185.305L340.78 185.337L340.81 185.368L345.663 180.606ZM350.033 187.108L343.858 189.915L343.879 189.961L343.9 190.008L350.033 187.108ZM314.842 158.38L309.301 162.311L309.342 162.369L309.385 162.427L314.842 158.38ZM312.701 156.369L309.091 162.129L309.169 162.178L309.248 162.224L312.701 156.369ZM310.128 155.386L308.765 162.027L308.809 162.036L308.852 162.043L310.128 155.386ZM302.944 157.033L299.671 151.161L295.949 153.278L296.209 157.533L302.944 157.033ZM303.827 171.489L297.093 171.989L297.516 178.919L304.421 178.218L303.827 171.489ZM311.62 169.321L314.766 175.263L314.812 175.238L314.858 175.213L311.62 169.321ZM314.893 166.368L320.407 170.194L320.443 170.142L320.478 170.09L314.893 166.368ZM304.962 184.347L302.924 177.926L297.857 179.601L298.232 184.911L304.962 184.347ZM306.01 199.18L299.28 199.744L299.677 205.369L305.274 205.912L306.01 199.18ZM307.925 199.378L307.098 206.101L307.361 206.13L307.626 206.139L307.925 199.378ZM312.778 198.754L314.426 205.291L314.553 205.258L314.679 205.219L312.778 198.754ZM315.723 197.276L319.654 202.722L319.744 202.656L319.833 202.587L315.723 197.276ZM317.846 194.636L311.892 191.532L311.843 191.625L311.796 191.72L317.846 194.636ZM317.141 186.648L311.635 190.629L311.695 190.712L311.757 190.794L317.141 186.648ZM314.659 184.476L311.425 190.454L311.525 190.507L311.626 190.557L314.659 184.476ZM311.572 183.61L310.836 190.342L310.966 190.355L311.097 190.363L311.572 183.61ZM345.396 195.835C345.64 198.596 345.302 200.636 344.683 202.16L357.17 207.125C358.772 203.182 359.228 198.895 358.838 194.47L345.396 195.835ZM344.649 202.244C343.922 204.102 342.887 205.68 341.526 207.04L350.988 216.561C353.716 213.836 355.794 210.642 357.203 207.042L344.649 202.244ZM341.526 207.04C340.017 208.548 338.173 209.901 335.936 211.072L342.062 223.045C345.413 221.29 348.409 219.137 350.988 216.561L341.526 207.04ZM335.983 211.048C333.583 212.281 331.035 213.327 328.332 214.182L332.236 227.079C335.645 226.002 338.907 224.667 342.015 223.069L335.983 211.048ZM328.332 214.182C325.569 215.054 322.773 215.733 319.942 216.217L322.046 229.551C325.489 228.961 328.887 228.137 332.236 227.079L328.332 214.182ZM319.936 216.218C316.974 216.728 314.221 217.11 311.673 217.369L312.861 230.827C315.76 230.533 318.826 230.105 322.052 229.55L319.936 216.218ZM311.673 217.369C309.172 217.623 306.541 217.788 303.779 217.862L303.963 231.384C307.033 231.302 310 231.118 312.861 230.827L311.673 217.369ZM303.685 217.865C301.054 217.972 298.407 217.94 295.743 217.769L294.705 231.268C297.832 231.47 300.95 231.507 304.057 231.381L303.685 217.865ZM295.743 217.769C293.09 217.598 290.467 217.285 287.874 216.829L285.378 230.154C288.457 230.695 291.566 231.066 294.705 231.268L295.743 217.769ZM287.969 216.846C285.481 216.372 283.14 215.719 280.939 214.896L276.078 227.577C279.02 228.677 282.091 229.528 285.283 230.137L287.969 216.846ZM285.228 220.543L277.715 136.913L264.276 138.3L271.789 221.929L285.228 220.543ZM274.098 143.572C276.192 142.458 278.456 141.413 280.896 140.443L276.061 127.877C273.191 129.019 270.466 130.272 267.893 131.641L274.098 143.572ZM280.988 140.406C283.408 139.402 285.881 138.533 288.407 137.797L284.799 124.81C281.796 125.685 278.852 126.719 275.969 127.915L280.988 140.406ZM288.484 137.774C291.074 136.987 293.646 136.344 296.2 135.845L293.781 122.569C290.76 123.16 287.74 123.916 284.721 124.833L288.484 137.774ZM296.301 135.824C298.864 135.282 301.336 134.893 303.717 134.652L302.529 121.193C299.634 121.487 296.684 121.955 293.68 122.59L296.301 135.824ZM303.717 134.652C306.502 134.369 309.331 134.26 312.205 134.327L312.693 120.803C309.272 120.723 305.883 120.853 302.529 121.193L303.717 134.652ZM312.216 134.327C315.019 134.388 317.697 134.687 320.258 135.216L323.145 121.966C319.751 121.265 316.261 120.88 312.682 120.803L312.216 134.327ZM320.258 135.216C322.759 135.733 325.081 136.494 327.238 137.49L333.01 125.189C329.892 123.75 326.598 122.679 323.145 121.966L320.258 135.216ZM327.317 137.525C329.284 138.402 330.995 139.543 332.485 140.951L341.804 131.048C339.202 128.59 336.232 126.624 332.931 125.153L327.317 137.525ZM332.541 141.003C333.975 142.326 335.169 143.944 336.11 145.925L348.308 139.983C346.676 136.547 344.494 133.528 341.749 130.995L332.541 141.003ZM336.149 146.007C337.044 147.827 337.702 150.183 337.969 153.213L351.411 151.848C351.029 147.519 350.032 143.49 348.268 139.902L336.149 146.007ZM337.969 153.213C338.126 154.989 338.012 156.578 337.681 158.015L350.827 160.895C351.506 157.949 351.682 154.921 351.411 151.848L337.969 153.213ZM337.681 158.015C337.341 159.492 336.803 160.775 336.086 161.911L347.464 169.034C349.044 166.53 350.158 163.801 350.827 160.895L337.681 158.015ZM336.086 161.911C335.365 163.054 334.438 164.095 333.259 165.038L341.59 175.571C343.915 173.711 345.889 171.531 347.464 169.034L336.086 161.911ZM333.348 164.968C332.226 165.835 330.869 166.578 329.212 167.158L333.513 179.923C336.427 178.904 339.111 177.489 341.501 175.64L333.348 164.968ZM330.237 180.224C332.494 180.578 334.486 181.209 336.254 182.084L342.351 169.938C339.283 168.42 335.982 167.405 332.488 166.858L330.237 180.224ZM336.305 182.108C338.09 182.973 339.551 184.043 340.75 185.305L350.577 175.908C348.217 173.425 345.437 171.432 342.3 169.913L336.305 182.108ZM340.81 185.368C342.063 186.652 343.079 188.152 343.858 189.915L356.207 184.301C354.806 181.131 352.909 178.297 350.516 175.845L340.81 185.368ZM343.9 190.008C344.691 191.724 345.203 193.649 345.396 195.835L358.838 194.47C358.519 190.854 357.642 187.416 356.165 184.209L343.9 190.008ZM322.622 160.8C322.429 158.62 321.77 156.34 320.299 154.332L309.385 162.427C309.253 162.248 309.191 162.099 309.167 162.029C309.145 161.966 309.166 161.998 309.18 162.165L322.622 160.8ZM320.382 154.448C319.284 152.878 317.881 151.523 316.155 150.514L309.248 162.224C309.237 162.218 309.227 162.211 309.219 162.205C309.212 162.2 309.209 162.197 309.211 162.199C309.214 162.201 309.246 162.232 309.301 162.311L320.382 154.448ZM316.312 150.609C314.799 149.668 313.146 149.042 311.403 148.728L308.852 162.043C308.971 162.065 309.034 162.094 309.091 162.129L316.312 150.609ZM311.49 148.744C310.143 148.483 308.675 148.351 307.164 148.504L308.352 161.962C308.281 161.97 308.276 161.964 308.351 161.968C308.425 161.973 308.561 161.988 308.765 162.027L311.49 148.744ZM307.164 148.504C305.616 148.661 304.11 149.051 302.673 149.668L307.853 162.091C308.013 162.022 308.172 161.981 308.352 161.962L307.164 148.504ZM302.673 149.668C301.644 150.111 300.643 150.608 299.671 151.161L306.216 162.905C306.74 162.606 307.286 162.335 307.853 162.091L302.673 149.668ZM296.209 157.533L297.093 171.989L310.561 170.988L309.678 156.532L296.209 157.533ZM304.421 178.218C305.771 178.081 307.275 177.812 308.876 177.457L306.126 164.25C304.818 164.54 303.872 164.695 303.233 164.76L304.421 178.218ZM308.876 177.457C310.937 177 312.908 176.27 314.766 175.263L308.473 163.38C307.75 163.771 306.975 164.062 306.126 164.25L308.876 177.457ZM314.858 175.213C317.068 173.972 318.946 172.29 320.407 170.194L309.378 162.543C309.136 162.891 308.832 163.177 308.382 163.43L314.858 175.213ZM320.478 170.09C322.442 167.159 322.89 163.84 322.622 160.8L309.18 162.165C309.222 162.634 309.184 162.862 309.175 162.909C309.17 162.93 309.173 162.907 309.195 162.854C309.218 162.798 309.254 162.726 309.307 162.647L320.478 170.09ZM307.966 176.859C306.245 177.034 304.56 177.385 302.924 177.926L307 190.768C307.653 190.552 308.367 190.398 309.154 190.318L307.966 176.859ZM298.232 184.911L299.28 199.744L312.74 198.615L311.692 183.783L298.232 184.911ZM305.274 205.912C305.906 205.973 306.513 206.036 307.098 206.101L308.752 192.656C308.103 192.584 307.434 192.514 306.745 192.447L305.274 205.912ZM307.626 206.139C308.556 206.168 309.486 206.14 310.411 206.046L309.223 192.588C308.938 192.617 308.606 192.63 308.224 192.618L307.626 206.139ZM310.411 206.046C311.739 205.912 313.082 205.648 314.426 205.291L311.13 192.218C310.342 192.427 309.712 192.538 309.223 192.588L310.411 206.046ZM314.679 205.219C316.47 204.669 318.137 203.831 319.654 202.722L311.793 191.83C311.506 192.04 311.21 192.188 310.878 192.29L314.679 205.219ZM319.833 202.587C321.577 201.221 322.936 199.512 323.896 197.552L311.796 191.72C311.721 191.875 311.665 191.925 311.614 191.965L319.833 202.587ZM323.8 197.74C325.17 195.145 325.408 192.36 325.19 189.893L311.749 191.258C311.783 191.648 311.76 191.841 311.754 191.881C311.75 191.91 311.768 191.767 311.892 191.532L323.8 197.74ZM325.19 189.893C324.97 187.407 324.247 184.766 322.525 182.503L311.757 190.794C311.639 190.639 311.617 190.55 311.636 190.606C311.657 190.67 311.714 190.871 311.749 191.258L325.19 189.893ZM322.647 182.668C321.393 180.909 319.753 179.408 317.691 178.395L311.626 190.557C311.6 190.544 311.576 190.53 311.557 190.517C311.537 190.504 311.526 190.495 311.523 190.492C311.517 190.487 311.558 190.521 311.635 190.629L322.647 182.668ZM317.893 178.498C316.078 177.528 314.107 176.977 312.047 176.858L311.097 190.363C311.229 190.37 311.317 190.396 311.425 190.454L317.893 178.498ZM312.308 176.878C310.856 176.737 309.399 176.714 307.966 176.859L309.154 190.318C309.537 190.279 310.088 190.27 310.836 190.342L312.308 176.878ZM438.955 204.024L440.404 210.61L448.093 208.816L445.244 201.496L438.955 204.024ZM407.151 211.447L400.808 213.834L402.823 219.382L408.6 218.034L407.151 211.447ZM401.964 197.166L408.307 194.78L406.539 189.912L401.37 190.437L401.964 197.166ZM387.176 198.668L386.582 191.939L381.186 192.487L380.486 197.881L387.176 198.668ZM385.229 213.674L385.164 220.437L391.146 220.417L391.919 214.461L385.229 213.674ZM351.864 213.786L345.255 212.514L343.61 220.577L351.8 220.55L351.864 213.786ZM370.042 124.664L369.111 117.978L364.39 118.699L363.433 123.392L370.042 124.664ZM405.944 119.183L412.234 116.655L410.302 111.69L405.012 112.497L405.944 119.183ZM397.875 177.531L398.469 184.261L406.816 183.413L404.314 175.429L397.875 177.531ZM390.951 155.433L397.39 153.33L384.254 154.701L390.951 155.433ZM388.146 178.52L381.449 177.788L380.44 186.092L388.74 185.249L388.146 178.52ZM437.505 197.437L405.702 204.861L408.6 218.034L440.404 210.61L437.505 197.437ZM413.495 209.061L408.307 194.78L395.621 199.552L400.808 213.834L413.495 209.061ZM401.37 190.437L386.582 191.939L387.77 205.397L402.558 203.895L401.37 190.437ZM380.486 197.881L378.539 212.887L391.919 214.461L393.867 199.455L380.486 197.881ZM385.293 206.91L351.929 207.023L351.8 220.55L385.164 220.437L385.293 206.91ZM358.474 215.059L376.652 125.937L363.433 123.392L345.255 212.514L358.474 215.059ZM370.974 131.35L406.875 125.87L405.012 112.497L369.111 117.978L370.974 131.35ZM399.654 121.712L432.665 206.552L445.244 201.496L412.234 116.655L399.654 121.712ZM404.314 175.429L397.39 153.33L384.512 157.535L391.436 179.634L404.314 175.429ZM384.254 154.701L381.449 177.788L394.844 179.252L397.648 156.165L384.254 154.701ZM388.74 185.249L398.469 184.261L397.281 170.802L387.552 171.79L388.74 185.249ZM508.859 167.112L515.439 168.521L515.441 168.512L515.443 168.504L508.859 167.112ZM503.454 180.765L497.696 177.316L497.689 177.327L503.454 180.765ZM482.34 199.552L485.268 205.607L485.293 205.595L485.318 205.582L482.34 199.552ZM468.025 204.937L469.672 211.475L469.694 211.469L469.716 211.463L468.025 204.937ZM446.265 208.261L446.411 215.021L446.486 215.018L446.56 215.014L446.265 208.261ZM440.252 208.348L433.521 208.89L433.937 215.081L440.132 215.111L440.252 208.348ZM434.376 121.013L431.772 114.808L427.319 116.733L427.644 121.555L434.376 121.013ZM448.753 116.343L450.148 122.941L450.172 122.936L450.197 122.93L448.753 116.343ZM505.046 133.558L499.054 136.744L499.065 136.766L499.077 136.787L505.046 133.558ZM483.518 157.301L476.787 157.859L476.792 157.922L476.797 157.984L483.518 157.301ZM482.144 150.627L475.747 152.861L475.767 152.921L475.789 152.981L482.144 150.627ZM478.98 145.182L473.867 149.661L473.931 149.735L473.998 149.807L478.98 145.182ZM473.955 141.63L471.258 147.864L471.313 147.888L471.368 147.91L473.955 141.63ZM466.995 140.633L466.622 133.885L460.095 134.333L460.25 140.881L466.995 140.633ZM467.955 181.16L461.21 181.408L461.409 189.788L469.539 187.713L467.955 181.16ZM474.801 177.909L478.817 183.292L478.857 183.261L478.896 183.231L474.801 177.909ZM479.819 172.485L474.2 168.815L474.195 168.822L474.19 168.83L479.819 172.485ZM482.819 165.694L476.3 164.036L476.291 164.07L476.282 164.104L482.819 165.694ZM483.598 158.211L490.336 157.76L490.329 157.644L490.319 157.528L483.598 158.211ZM503.023 151.127C503.507 156.617 503.223 161.461 502.275 165.719L515.443 168.504C516.744 162.662 517.05 156.395 516.464 149.762L503.023 151.127ZM502.279 165.702C501.3 170.045 499.76 173.899 497.696 177.316L509.213 184.214C512.097 179.441 514.16 174.192 515.439 168.521L502.279 165.702ZM497.689 177.327C495.633 180.745 493.085 183.769 490.023 186.416L498.759 196.612C502.912 193.022 506.406 188.88 509.22 184.203L497.689 177.327ZM490.023 186.416C486.857 189.153 483.31 191.524 479.361 193.522L485.318 205.582C490.223 203.1 494.71 200.112 498.759 196.612L490.023 186.416ZM479.411 193.497C475.405 195.484 471.052 197.127 466.335 198.412L469.716 211.463C475.224 209.962 480.413 208.015 485.268 205.607L479.411 193.497ZM466.379 198.4C461.667 199.649 456.759 200.537 451.65 201.056L452.838 214.514C458.625 213.926 464.238 212.915 469.672 211.475L466.379 198.4ZM451.65 201.056C449.713 201.253 447.82 201.403 445.97 201.508L446.56 215.014C448.618 214.897 450.71 214.73 452.838 214.514L451.65 201.056ZM446.12 201.501C444.255 201.566 442.34 201.594 440.373 201.584L440.132 215.111C442.268 215.122 444.361 215.092 446.411 215.021L446.12 201.501ZM446.984 207.806L441.107 120.471L427.644 121.555L433.521 208.89L446.984 207.806ZM436.979 127.219C441.207 125.391 445.594 123.965 450.148 122.941L447.358 109.744C441.987 110.951 436.789 112.639 431.772 114.808L436.979 127.219ZM450.197 122.93C454.925 121.831 459.629 121.045 464.308 120.569L463.12 107.111C457.855 107.646 452.584 108.528 447.309 109.755L450.197 122.93ZM464.308 120.569C469.812 120.01 474.794 120.339 479.311 121.465L482.727 108.335C476.537 106.792 469.983 106.414 463.12 107.111L464.308 120.569ZM479.311 121.465C483.843 122.595 487.712 124.448 491.01 126.979L499.3 116.199C494.455 112.481 488.9 109.875 482.727 108.335L479.311 121.465ZM491.01 126.979C494.264 129.477 496.95 132.695 499.054 136.744L511.039 130.373C508.097 124.712 504.189 119.951 499.3 116.199L491.01 126.979ZM499.077 136.787C501.162 140.729 502.523 145.465 503.023 151.127L516.464 149.762C515.833 142.609 514.062 136.088 511.016 130.329L499.077 136.787ZM490.249 156.744C490.045 153.815 489.467 150.984 488.499 148.273L475.789 152.981C476.326 154.485 476.665 156.103 476.787 157.859L490.249 156.744ZM488.54 148.393C487.554 145.46 486.042 142.813 483.962 140.557L473.998 149.807C474.716 150.587 475.313 151.57 475.747 152.861L488.54 148.393ZM484.093 140.703C482.022 138.319 479.471 136.531 476.542 135.35L471.368 147.91C472.419 148.334 473.219 148.915 473.867 149.661L484.093 140.703ZM476.651 135.396C473.503 134.06 470.094 133.647 466.622 133.885L467.369 147.381C469.187 147.257 470.418 147.508 471.258 147.864L476.651 135.396ZM460.25 140.881L461.21 181.408L474.7 180.912L473.74 140.385L460.25 140.881ZM469.539 187.713C472.928 186.849 476.047 185.385 478.817 183.292L470.785 172.526C469.548 173.462 468.102 174.165 466.371 174.606L469.539 187.713ZM478.896 183.231C481.477 181.221 483.675 178.855 485.449 176.14L474.19 168.83C473.274 170.233 472.126 171.482 470.706 172.587L478.896 183.231ZM485.438 176.156C487.24 173.415 488.552 170.449 489.356 167.283L476.282 164.104C475.856 165.782 475.168 167.342 474.2 168.815L485.438 176.156ZM489.338 167.352C490.174 164.201 490.509 160.995 490.336 157.76L476.861 158.661C476.958 160.466 476.774 162.249 476.3 164.036L489.338 167.352ZM490.319 157.528L490.239 156.619L476.797 157.984L476.878 158.893L490.319 157.528Z" fill="#560404" mask="url(#path-1-outside-1_1_755)"/>
</g>
<defs>
<filter id="filter0_d_1_755" x="257.429" y="97.5736" width="271.283" height="143.082" filterUnits="userSpaceOnUse" color-interpolation-filters="sRGB">
<feFlood flood-opacity="0" result="BackgroundImageFix"/>
<feColorMatrix in="SourceAlpha" type="matrix" values="0 0 0 0 0 0 0 0 0 0 0 0 0 0 0 0 0 0 127 0" result="hardAlpha"/>
<feOffset dx="2.76055"/>
<feGaussianBlur stdDeviation="4.60092"/>
<feComposite in2="hardAlpha" operator="out"/>
<feColorMatrix type="matrix" values="0 0 0 0 0.129167 0 0 0 0 0.129167 0 0 0 0 0.129167 0 0 0 0.53 0"/>
<feBlend mode="normal" in2="BackgroundImageFix" result="effect1_dropShadow_1_755"/>
<feBlend mode="normal" in="SourceGraphic" in2="effect1_dropShadow_1_755" result="shape"/>
</filter>
<linearGradient id="paint0_linear_1_755" x1="372.226" y1="129.174" x2="402.575" y2="264.737" gradientUnits="userSpaceOnUse">
<stop stop-color="#FF7474"/>
<stop offset="0.436423" stop-color="#CE311B"/>
<stop offset="0.693922" stop-color="#870404"/>
</linearGradient>
</defs>
</svg>
