<svg width="1316" height="418" viewBox="0 0 1316 418" fill="none" xmlns="http://www.w3.org/2000/svg">
<g filter="url(#filter0_d_2_547)">
<path d="M160.677 164.182C160.69 164.175 160.704 164.174 160.717 164.179C164.822 165.812 168.713 167.362 172.289 168.726C197.782 178.445 283.358 185.734 298.939 186.99C300.362 187.105 301.397 188.231 301.427 189.651C301.461 191.308 300.075 192.735 298.397 192.808C287.256 193.297 273.178 195.209 271.68 198.068C271.068 199.249 273.341 201.346 277.785 203.711C282.725 206.321 306.013 212.379 415.444 212.146C477.73 212.019 542.107 209.791 556.368 208.598C584.245 206.307 668.065 193.873 678.345 190.508C678.785 190.327 679.273 190.368 679.649 190.617L684.014 193.513C684.689 193.961 684.608 194.893 683.809 195.186C675.485 198.737 632.907 216.718 614.33 221.293C602.419 224.217 594.532 228.551 594.677 232.057C594.769 234.674 599.762 237.483 608.739 240C637.123 247.911 706.831 235.986 707.514 235.868L707.694 235.837C708.255 235.741 708.823 235.724 709.379 235.787L709.609 235.813C709.868 235.824 734.541 238.371 784.51 235.579C829.79 233.048 897.837 210.55 926.913 200.918C930.16 199.854 932.866 198.963 934.955 198.267C955.002 191.809 1034.26 152.776 1035.05 152.392L1035.21 152.313C1036.78 151.545 1038.57 151.471 1040.11 152.111L1040.61 152.318C1040.86 152.403 1064.4 162.022 1093.47 161.189C1122.83 160.344 1174.24 136.494 1174.75 136.27L1178.16 134.68C1181.75 133.007 1184.59 137.516 1181.6 140.147C1148.73 169.131 1088.85 186.741 1053.58 185.032C1020.45 183.418 989.242 210.11 979.322 223.301C977.627 225.542 977.975 226.47 978.15 226.576C980.664 228.166 996.303 226.64 1010.33 223.441L1013.55 222.708C1017.07 221.907 1018.49 226.724 1015.18 228.264C997.045 236.729 963.123 242.178 933.222 246.992C918.954 249.293 905.447 251.456 896.568 253.577C882.83 256.839 873.546 263.427 873.481 269.931C873.415 275.745 880.456 281.011 893.802 285.2C929.081 296.276 1028.27 276.487 1075.94 266.988C1124.83 257.247 1260.64 225.597 1262.02 225.264L1265.23 224.515C1268.79 223.685 1270.23 228.574 1266.87 230.112C1215.65 253.577 1036.87 304.374 910.169 313.677C816.469 320.548 718.671 317.673 686.147 316.702C680.485 316.994 676.125 316.973 672.877 316.657C672.212 316.603 671.289 316.513 670.377 316.324C668.331 315.938 666.215 315.154 666.376 313.313C666.589 310.636 670.827 310.749 674.25 310.827C676.445 310.875 679.642 310.967 683.766 311.1L685.436 311.174C717.356 309.432 782.881 298.259 794.847 294.475C798.746 293.243 798.533 292.1 798.461 291.727C797.826 288.618 787.172 283.315 770.398 279.788C756.4 276.802 702.508 278.976 655.022 280.868C619.558 282.28 586.041 283.607 564.864 283.236C513.692 282.302 335.121 262.124 327.531 261.271L327.017 261.199C322.496 260.363 317.505 259.779 314.282 259.633C313.936 259.618 313.752 260.064 314.03 260.254C322.503 266.421 375.364 281.824 408.793 290.673C411.97 291.513 410.868 296.268 407.555 296.015L406.808 295.958C405.771 295.888 300.776 287.815 234.192 278.312C230.812 277.841 227.369 277.27 223.787 276.594C154.323 263.71 72.7469 225.931 52.6359 208.7C42.7355 200.202 38.2139 185.372 40.6476 176.607C43.5761 166.015 35.7265 154.597 55.1501 147.003C86.6333 134.695 129.386 151.736 160.637 164.186C160.65 164.191 160.664 164.189 160.677 164.182Z" fill="white"/>
<path d="M461.108 212.542C461.338 212.461 461.539 212.39 461.739 212.318C464.034 211.506 468.291 209.943 467.632 206.56C466.931 203.055 462.492 203.349 452.521 204.407C445.805 205.1 436.911 206.292 428.341 207.397C418.605 208.67 409.399 209.892 403.339 210.434C397.127 211.002 386.77 221.253 381.176 227.314L380.308 228.253C378.44 230.274 380.286 233.491 382.958 232.871L384.614 232.487C387.029 231.931 443.297 218.851 461.137 212.532L461.108 212.542Z" fill="white"/>
<path d="M1172.25 182.912C1172.26 182.918 1172.26 182.934 1172.25 182.941C1167.38 185.751 1159.94 190.049 1151.86 194.623C1131.21 206.275 1117.71 213.353 1111.72 215.635C1096.38 221.486 1082.03 219.401 1081.42 219.316L1080.24 219.134C1078.96 218.936 1078.11 217.796 1078.27 216.508C1078.39 215.831 1080.62 199.773 1098.65 195.217C1101.62 194.472 1105.77 193.462 1110.62 192.268C1131 187.311 1168.91 178.07 1175.85 174.055C1177.43 173.142 1179.09 173.488 1179.71 173.661L1180.36 173.854C1181.27 174.126 1181.93 174.861 1182.11 175.787C1182.26 176.641 1182.18 176.977 1180.89 177.805C1180.88 177.81 1180.87 177.816 1180.86 177.822C1180.82 177.853 1180.66 177.955 1180.55 178.016C1180.05 178.309 1179.42 178.696 1178.64 179.152C1177.13 180.046 1174.93 181.318 1172.25 182.882C1172.24 182.889 1172.24 182.906 1172.25 182.912Z" fill="white"/>
</g>
<defs>
<filter id="filter0_d_2_547" x="0" y="94.3178" width="1308.77" height="263.812" filterUnits="userSpaceOnUse" color-interpolation-filters="sRGB">
<feFlood flood-opacity="0" result="BackgroundImageFix"/>
<feColorMatrix in="SourceAlpha" type="matrix" values="0 0 0 0 0 0 0 0 0 0 0 0 0 0 0 0 0 0 127 0" result="hardAlpha"/>
<feOffset/>
<feGaussianBlur stdDeviation="20"/>
<feComposite in2="hardAlpha" operator="out"/>
<feColorMatrix type="matrix" values="0 0 0 0 1 0 0 0 0 1 0 0 0 0 1 0 0 0 0.5 0"/>
<feBlend mode="normal" in2="BackgroundImageFix" result="effect1_dropShadow_2_547"/>
<feBlend mode="normal" in="SourceGraphic" in2="effect1_dropShadow_2_547" result="shape"/>
</filter>
</defs>
</svg>
